<svg xmlns="http://www.w3.org/2000/svg" width="158.999" height="40.006" viewBox="0 0 158.999 40.006"><g transform="translate(0 -0.997)"><path d="M0,37.793H0a100.619,100.619,0,0,0,1.577-18.9A100.507,100.507,0,0,0,0,0,101.579,101.579,0,0,0,17.806,1.578c.376,0,.757,0,1.133-.006.433.006.873.009,1.307.009A99.51,99.51,0,0,0,37.884,0a101.739,101.739,0,0,0-1.57,18.893,101.109,101.109,0,0,0,1.569,18.9A101.562,101.562,0,0,0,20.09,36.216c-.381,0-.767,0-1.148.007s-.741-.006-1.108-.006A102,102,0,0,0,0,37.793Zm11.234-6.3a.977.977,0,0,0-.092,1.066,2.5,2.5,0,0,0,2.025,1.091,4.288,4.288,0,0,0,2.926-1.192c.091-.11.163-.16.233-.16a.167.167,0,0,1,.074.018.322.322,0,0,1,.123.214.465.465,0,0,0,.158.4.334.334,0,0,0,.067.055.408.408,0,1,0,.472-.666.465.465,0,0,0-.316-.123h-.027v-.007a.09.09,0,0,0,.03-.067.094.094,0,0,0-.03-.068l-.153-.153c.754-.749,1.542-1.462,2.214-2.061.909.812,1.592,1.447,2.214,2.061l-.129.135a.1.1,0,0,0,0,.141h-.035a.428.428,0,0,0-.3.124.42.42,0,0,0-.092.587.078.078,0,0,1,.009.012.079.079,0,0,0,.009.012.442.442,0,0,0,.613,0,.485.485,0,0,0,.16-.4.31.31,0,0,1,.117-.214.187.187,0,0,1,.078-.018c.072,0,.143.049.229.16a4.346,4.346,0,0,0,2.932,1.192,2.5,2.5,0,0,0,2.024-1.093.976.976,0,0,0-.092-1.065l-.025.067a.692.692,0,0,0-.969-.092,1.034,1.034,0,0,0-.085.092,1.76,1.76,0,0,1-1.308.611h-.042a2,2,0,0,1-1.577-.777.364.364,0,0,1,.038-.3.477.477,0,0,0,.41-.11.411.411,0,0,0,.1-.572.413.413,0,0,0-.337-.175.408.408,0,0,0-.235.074.336.336,0,0,0-.067.061.457.457,0,0,0-.135.5.288.288,0,0,1-.1.14.082.082,0,0,0,0-.092.1.1,0,0,0-.067-.035h-.009a.1.1,0,0,0-.063.024.007.007,0,0,1,0,.005.008.008,0,0,0,0,.006l-.067.061-.024.018c-.66-.706-1.342-1.382-2.086-2.067,1.45-1.214,2.82-2.263,4.19-3.209A14.877,14.877,0,0,1,32.1,22.9c.171,0,.265.008.27.009a6.975,6.975,0,0,0-2.5-.427,10.943,10.943,0,0,0-4.952,1.253,39.764,39.764,0,0,0-5.981,4.231,39.778,39.778,0,0,0-5.981-4.231A10.909,10.909,0,0,0,7.99,22.48a6.99,6.99,0,0,0-2.5.427l.032,0c.042,0,.121-.005.236-.005a14.893,14.893,0,0,1,7.909,2.8c1.446,1,2.859,2.085,4.2,3.216-.7.643-1.389,1.317-2.092,2.061l-.068-.061a.007.007,0,0,0,0-.005.008.008,0,0,1,0-.006.1.1,0,0,0-.066-.024h-.007a.1.1,0,0,0-.067.035.117.117,0,0,0,0,.092.287.287,0,0,1-.1-.14.457.457,0,0,0-.135-.5.336.336,0,0,0-.068-.061.411.411,0,1,0-.472.673.472.472,0,0,0,.41.11.343.343,0,0,1,.038.3,1.964,1.964,0,0,1-1.545.76l-.1,0a1.734,1.734,0,0,1-1.313-.611.511.511,0,0,0-.08-.079.685.685,0,0,0-.446-.164l-.055,0a.684.684,0,0,0-.469.241l.006-.049Zm7.73-7.643a2.818,2.818,0,0,1,.552.459,2.738,2.738,0,0,0,.408-.327,1.179,1.179,0,0,1,.3-.233.012.012,0,0,1,.01,0,2.992,2.992,0,0,0,.148.55,5.682,5.682,0,0,0,1.288-1.223.275.275,0,0,0-.178-.33l-.043-.037h-2.1l.392-1.963-.349-.349.46-1.778-.363-.177.466-1.95-.428-.306.38-1.663-.429-.231.27-1.481-.35-.226.055-1.6a1.733,1.733,0,0,0-.508-.8,1.855,1.855,0,0,0-.509.8l.055,1.6-.356.231.27,1.48-.423.232.374,1.662-.428.306.478,1.95-.362.177L18.5,20.4l-.35.349.455,1.969H16.464a.4.4,0,0,0-.192.18.2.2,0,0,0,.007.156A5.6,5.6,0,0,0,17.554,24.3a3.373,3.373,0,0,0,.159-.544.009.009,0,0,1,.008,0c.027,0,.1.086.187.185a1.755,1.755,0,0,0,.375.363l.028-.02C18.406,24.218,18.7,24.017,18.963,23.845ZM20.6,12.489h.086v.1c.08.692.426.7.429.7h.074v.023a.852.852,0,0,0,.442.832h.043V14.2a2.819,2.819,0,0,0,.22,1v.04a1.437,1.437,0,0,0,.448.746.323.323,0,0,0,.172-.116,1.151,1.151,0,0,0,.068-.672v-.055l.042-.032a.555.555,0,0,0,.153-.7l-.037-.077.068-.043a.271.271,0,0,0,.1-.177v-.005a1.267,1.267,0,0,0-.429-.722l-.092-.085.11-.055a.133.133,0,0,0,.092-.1,1.431,1.431,0,0,0-.675-.654l-.117-.073.111-.079h.037a2.268,2.268,0,0,1-.21-.281.478.478,0,0,1-.292.1h-.008a1.471,1.471,0,0,1-.767-.318,13.249,13.249,0,0,0-1.356-1.328,10.936,10.936,0,0,1,.613,1.431c.321.507.578.547.648.547a.132.132,0,0,0,.026,0Zm-4.45-.462c-.07.108-.137.2-.2.282h.031l.1.078-.11.074a1.448,1.448,0,0,0-.681.653.143.143,0,0,0,.092.1l.117.055-.092.086a1.259,1.259,0,0,0-.428.721.243.243,0,0,0,.11.177l.061.043-.043.073a.543.543,0,0,0,.147.721l.037.037v.055a1.094,1.094,0,0,0,.068.673.27.27,0,0,0,.166.116,1.4,1.4,0,0,0,.448-.746,3.153,3.153,0,0,0,.227-1v-.061h.043a.864.864,0,0,0,.442-.833v-.1h.08s.35-.008.423-.7v-.1l.086.032a.16.16,0,0,0,.042,0c.092,0,.338-.054.639-.549a10.015,10.015,0,0,1,.613-1.431,14.1,14.1,0,0,0-1.362,1.328,1.448,1.448,0,0,1-.754.312A.489.489,0,0,1,16.153,12.028Zm7.516,1.156h0v.054a4.313,4.313,0,0,0,.785,1.093,1.5,1.5,0,0,0,.834.611c.3-.4-.239-1.215-.245-1.223l.005-.023v-.037a.986.986,0,0,0-.293-1.076l-.025-.012V12.5a.506.506,0,0,0-.031-.379,1.518,1.518,0,0,0-.791-.569h-.092l.043-.092a.308.308,0,0,0,0-.275,1.368,1.368,0,0,0-.867-.311c-.038,0-.076,0-.114,0h-.11l.037-.116a.357.357,0,0,0,0-.116h-.05a1.217,1.217,0,0,1-.613-.22.937.937,0,0,1-.791.3c-.051,0-.1,0-.156,0s-.1,0-.156,0a9.558,9.558,0,0,0-1.779-.507h-.11l.147.1.233.11a13.732,13.732,0,0,1,1.227,1.223,1.23,1.23,0,0,0,.675.287h.026a.3.3,0,0,0,.225-.1V11.8l.037-.061.061.11a2.324,2.324,0,0,0,.258.355l.067.068a.523.523,0,0,0,.35.177.466.466,0,0,0,.061,0,.481.481,0,0,0,.062,0l.074-.056.049.086a1,1,0,0,0,.866.715l.1-.005ZM13.1,12.546h0a.986.986,0,0,0-.291,1.078V13.7c-.006.009-.549.826-.245,1.223a1.52,1.52,0,0,0,.841-.611,4.786,4.786,0,0,0,.785-1.094v-.055h.1a1.019,1.019,0,0,0,.828-.721l.043-.092.08.061a.25.25,0,0,0,.117.031.513.513,0,0,0,.349-.176l.068-.068a2.877,2.877,0,0,0,.251-.355l.067-.116.037.067.031.049a.315.315,0,0,0,.23.1h.015a1.243,1.243,0,0,0,.675-.287,12.94,12.94,0,0,1,1.227-1.223l.228-.177.2-.122h-.117l-.018.031a9.491,9.491,0,0,0-1.779.508c-.052,0-.1,0-.157,0s-.1,0-.157,0a.936.936,0,0,1-.791-.3,1.16,1.16,0,0,1-.613.22h-.042a.359.359,0,0,0,0,.116l.031.115h-.11c-.038,0-.077,0-.115,0a1.387,1.387,0,0,0-.873.311.311.311,0,0,0,0,.275l.043.092h-.086a1.478,1.478,0,0,0-.8.569.513.513,0,0,0,0,.38v.067l-.049.037Zm-1.261-1.272h0a.849.849,0,0,0,.613-.153l.043-.055a3.111,3.111,0,0,0,1-.538l.042-.037h.05a.818.818,0,0,0,.362.085,1.063,1.063,0,0,0,.675-.287l.055-.049.055.067a.371.371,0,0,0,.148.093h.153a1.133,1.133,0,0,0,.613-.232l.08-.061.037.1a.705.705,0,0,0,.7.281c.048,0,.1,0,.144,0s.1,0,.144,0a12.732,12.732,0,0,1,1.484-.459l.209-.037a5.194,5.194,0,0,0-.65-.214c-.347-.1-.642-.164-.644-.165a1.064,1.064,0,0,1-.687-.7h-.031a1.023,1.023,0,0,1-.485-.122h-.031a2.338,2.338,0,0,0-.7-.153l-.045,0a.368.368,0,0,0-.238.088.244.244,0,0,0-.037.184v.135l-.122-.05a2.816,2.816,0,0,0-.859-.22.263.263,0,0,0-.041,0,.267.267,0,0,0-.18.07.266.266,0,0,0,0,.171l.031.128H13.6a1.748,1.748,0,0,0-.175-.009c-.058,0-.117,0-.175.009a.776.776,0,0,0-.613.177.283.283,0,0,0-.055.232v.085H12.5a.613.613,0,0,0-.5.7v.055h-.05A1.242,1.242,0,0,0,11.44,11a.364.364,0,0,0,.033.274c.058,0,.12,0,.184,0S11.78,11.277,11.841,11.274Zm12.5-.78h.05l.042.037a3.054,3.054,0,0,0,.995.538.842.842,0,0,0,.5.161.855.855,0,0,0,.116-.008c.059,0,.119,0,.178,0s.119,0,.177,0a.364.364,0,0,0,.043-.275l-.031-.012a1.215,1.215,0,0,0-.521-.611h-.043v-.049a.611.611,0,0,0-.49-.7h-.086V9.489a.282.282,0,0,0-.06-.236.756.756,0,0,0-.613-.177c-.058-.006-.117-.009-.175-.009s-.117,0-.175.009h-.122l.031-.128a.21.21,0,0,0,0-.171.251.251,0,0,0-.173-.07.247.247,0,0,0-.042,0,3,3,0,0,0-.865.22l-.123.049V8.844a.213.213,0,0,0-.042-.184.336.336,0,0,0-.227-.088l-.043,0a2.253,2.253,0,0,0-.7.153H21.9a1.022,1.022,0,0,1-.484.122h-.031a1.052,1.052,0,0,1-.633.764s-.3.066-.65.166a5.691,5.691,0,0,0-.613.213l.215.037a12.68,12.68,0,0,1,1.478.459c.046,0,.094,0,.141,0s.094,0,.141,0a.7.7,0,0,0,.693-.281l.038-.092.079.055a1.182,1.182,0,0,0,.614.232h.159a.47.47,0,0,0,.141-.092l.055-.068.061.05a1.077,1.077,0,0,0,.675.287.81.81,0,0,0,.362-.086ZM16.533,8.786h.1v.079a.849.849,0,0,0,.613.611,9.208,9.208,0,0,1,1.135.324,3.577,3.577,0,0,1,.423.177l-.067-.056a1.5,1.5,0,0,0-.184-.208,9.351,9.351,0,0,0-.772-.7,1.044,1.044,0,0,1-.3-.839.717.717,0,0,1-.448-.61.906.906,0,0,1-.38-.275.138.138,0,0,0-.135.116l-.055.128-.08-.11a1.525,1.525,0,0,0-.68-.611s-.068,0-.093.122l-.042.128-.086-.086a1.369,1.369,0,0,0-.662-.355H14.81a.2.2,0,0,0-.192.147l-.037.079-.074-.037a.408.408,0,0,0-.184-.043h-.006a.485.485,0,0,0-.442.318v.049h-.086l-.059,0a.8.8,0,0,0-.511.185.283.283,0,0,0-.072.194,1.585,1.585,0,0,0,.693.366h.085a2.53,2.53,0,0,0,.681.1h.319v.049a.756.756,0,0,0,.642.355h.254v.086a.373.373,0,0,0,.11.183L16,8.707a.6.6,0,0,0,.184.079h.074c.045,0,.09,0,.135,0S16.488,8.789,16.533,8.786Zm4.7-1.508a.956.956,0,0,1-.38.274.689.689,0,0,1-.448.611.973.973,0,0,1-.3.838,9.519,9.519,0,0,0-.773.7c-.064.064-.124.135-.184.208a3.308,3.308,0,0,1,.423-.177,9.365,9.365,0,0,1,1.135-.324l-.018.055a.826.826,0,0,0,.613-.61V8.773h.067c.045,0,.09,0,.135,0s.09,0,.135,0h.074a.849.849,0,0,0,.184-.079l.067-.055a.382.382,0,0,0,.111-.183V8.3h.264a.741.741,0,0,0,.637-.356V7.9H23.3a2.559,2.559,0,0,0,.675-.1h.1a1.6,1.6,0,0,0,.693-.367.284.284,0,0,0-.074-.2.8.8,0,0,0-.512-.186l-.059,0h-.049V7a.482.482,0,0,0-.436-.319h-.006a.453.453,0,0,0-.195.043l-.067.037-.031-.078a.209.209,0,0,0-.2-.148h-.008a1.305,1.305,0,0,0-.653.361l-.1.086V6.855c-.039-.116-.082-.116-.1-.116a1.526,1.526,0,0,0-.68.611l-.086.11-.141-.068A.136.136,0,0,0,21.235,7.277Zm-1.5-.291c-.151.836-.531,2.16-.687,2.69v.1l.166-.176.184-.184.018-.018a4.729,4.729,0,0,1,.613-.514.713.713,0,0,0,.245-.715l-.043-.079L20.3,8.06a1.181,1.181,0,0,0,.288-.2.423.423,0,0,0,.135-.281v-.1h.049a.8.8,0,0,0,.4-.293.624.624,0,0,0,.111-.281V6.777h.049a2.3,2.3,0,0,0,.693-.428,1.169,1.169,0,0,0,.448-.555.244.244,0,0,0-.219-.136h-.02a.819.819,0,0,0-.392.122H21.8l-.043-.031a.419.419,0,0,0-.276-.11.36.36,0,0,0-.288.147l-.049.067L21.08,5.8a.15.15,0,0,0-.117-.055.928.928,0,0,0-.472.544l-.043.122-.086-.1a.107.107,0,0,0-.074-.055A1.172,1.172,0,0,0,19.951,7l-.031.135-.1-.092a.145.145,0,0,0-.083-.057ZM15.626,5.643a.235.235,0,0,0-.212.133,1.158,1.158,0,0,0,.442.556,2.212,2.212,0,0,0,.7.427H16.6v.059a.693.693,0,0,0,.1.281.761.761,0,0,0,.4.293h.049v.1a.414.414,0,0,0,.13.282,1.12,1.12,0,0,0,.288.2l.122.11-.049.073a.727.727,0,0,0,.251.715c.046.035.319.257.613.514l.19.183a2.316,2.316,0,0,1,.159.177l-.032-.1c-.155-.532-.532-1.858-.68-2.685l-.038.024a.137.137,0,0,0-.085.049l-.1.092V6.991a1.175,1.175,0,0,0-.331-.746.094.094,0,0,0-.08.055l-.08.1-.049-.122a.919.919,0,0,0-.466-.544.154.154,0,0,0-.11.049l-.061.055-.049-.068a.377.377,0,0,0-.564-.037l-.043.031h-.043a.9.9,0,0,0-.392-.122h-.022Zm2.587.754a1.621,1.621,0,0,0,.042.452v.128l.05.22c.107.516.3,1.269.54,2.121v.049l.074.226a.659.659,0,0,1,.067-.232V9.313c.214-.74.413-1.514.545-2.122a.773.773,0,0,1,.049-.214l.042.006a.508.508,0,0,1,0-.128,1.6,1.6,0,0,0,.043-.453h-.061V6.3a2.372,2.372,0,0,0-.1-1.223.077.077,0,0,0-.06-.031H19.39L19.3,5.1V4.988a1.98,1.98,0,0,0-.362-.856,1.972,1.972,0,0,0-.356.856V5.1l-.092-.055h-.061a.064.064,0,0,0-.055.031,2.25,2.25,0,0,0-.1,1.218v.1Z" transform="translate(121 1.087)" fill="#fff"/><path d="M1.853,1.648l-.362.073L0,3.207A99.486,99.486,0,0,1,19.255,1.568,97.579,97.579,0,0,1,38.51,3.207l1.6-1.6A100.524,100.524,0,0,0,21.058.007,101.377,101.377,0,0,0,1.858,1.64" transform="translate(118.889 37.793)" fill="#fff"/><path d="M1.484,38.517l.08-.361A98.643,98.643,0,0,0,3.2,19,101.066,101.066,0,0,0,1.6,0L0,1.6A98.57,98.57,0,0,1,1.644,20.8,96.794,96.794,0,0,1,0,40.006Z" transform="translate(118.886 0.997)" fill="#fff"/><path d="M5.2,3a4.174,4.174,0,0,1-.889,2.366A2.2,2.2,0,0,1,2.611,6.5a5.035,5.035,0,0,1-1.484-.391Q0,5.679,0,5.4a.073.073,0,0,1,.061-.055A5.6,5.6,0,0,1,.717,5.6a2.766,2.766,0,0,0,.975.251A3.135,3.135,0,0,0,3.636,4.757,3.142,3.142,0,0,0,4.8,2.83q0-.581-1.386-1.577Q3.494.911,3.69,0A4.289,4.289,0,0,1,4.727,1.064,3.624,3.624,0,0,1,5.2,3Z" transform="translate(0 16.336)" fill="#fff"/><path d="M2.533,8.023h-2Q.319,4.275,0,.9L.687,0l.331,3.919a23.71,23.71,0,0,0,.331,2.806l.123.1a.737.737,0,0,0,.552.165h.534V8.029Z" transform="translate(6.563 11.834)" fill="#fff"/><path d="M2.03,1.039H0V0H2.03Z" transform="translate(8.735 18.817)" fill="#fff"/><path d="M5.165,4.082h0L2.546,2.651a.537.537,0,0,0-.356.373.535.535,0,0,1-.423.373H0V2.358H1.877a.615.615,0,0,0,.508-.483,4.255,4.255,0,0,1,.35-.8A5.9,5.9,0,0,1,3.687.39,2.347,2.347,0,0,1,4.773,0a.232.232,0,0,1,.045,0,.226.226,0,0,1,.155.06.223.223,0,0,1,.07.2,2.694,2.694,0,0,1,0,.434c.273,1.047.626,1.615,1.049,1.688H6.38V3.416L6.355,3.4H5.484l-.318.678ZM4.177,1.073A1.274,1.274,0,0,0,3.1,1.657l.7.44a2.275,2.275,0,0,0,.773.329l.293-.082c-.067-.307-.121-.537-.166-.7a.61.61,0,0,0-.448-.569l-.08,0Z" transform="translate(10.526 16.454)" fill="#fff"/><path d="M2.03,1.039H0V0H2.03Z" transform="translate(16.593 18.817)" fill="#fff"/><path d="M3.914,7.942H3.345a.756.756,0,0,1-.418-.14.733.733,0,0,1-.177-.264.633.633,0,0,0-.135-.22.726.726,0,0,0-.239.312.573.573,0,0,1-.276.311H0V6.9H2.717V5.531c.233-.31.55-.69.945-1.131a.251.251,0,0,1,0,.121,11.954,11.954,0,0,1-.233,1.957,2.2,2.2,0,0,0-.043.306c0,.081.07.122.209.122h.319V7.941ZM3.025,3.288h0L1.878,2.6l-.363.611L.289,2.5l.5-.843,1.129.727.393-.61,1.205.7-.491.812ZM1.688,1.522h0L.559.807,1.059,0,2.2.69l-.508.831Z" transform="translate(18.382 11.916)" fill="#fff"/><path d="M3.921,6.379H3.345a.756.756,0,0,1-.418-.141.737.737,0,0,1-.177-.263.643.643,0,0,0-.135-.22.733.733,0,0,0-.239.312.576.576,0,0,1-.276.312H0V5.339H2.724V3.969c.233-.309.55-.689.945-1.131a.255.255,0,0,1,0,.122,11.948,11.948,0,0,1-.233,1.957,1.962,1.962,0,0,0-.043.306c0,.081.07.122.209.122h.319V6.378ZM3.058,1.645h0L1.893.945l-.362.611-1.2-.7L.831,0,1.96.709,2.346.1,3.558.826l-.5.818Z" transform="translate(22.062 13.478)" fill="#fff"/><path d="M8.778,1.5A3.453,3.453,0,0,1,8.6,2.579a1.545,1.545,0,0,1-.227.507H6.613a.387.387,0,0,1-.221-.22l-.086-.171a5.362,5.362,0,0,1-.442.391H2.724A1.146,1.146,0,0,0,2.509,2.7q.184,0-.172.2a1.34,1.34,0,0,1-.5.2H0V2.062H2.251a.367.367,0,0,0,.35-.383V1.054l.939-1a5.814,5.814,0,0,1-.454,1.993H6.055A1.724,1.724,0,0,0,6.11,1.3Q6.11.941,7.1.17q-.129.465-.417,1.688-.062.2,1.073.2H8.2q-.043-.305-.221-1A.714.714,0,0,1,8.282.581,4.5,4.5,0,0,0,8.791,0V1.51Z" transform="translate(25.769 16.77)" fill="#fff"/><path d="M4.6,8.366a.55.55,0,0,1-.072,0H1.559l.184-1.1a4.015,4.015,0,0,0,1.386-.844A2.833,2.833,0,0,0,3.963,5.6a3.56,3.56,0,0,0-.791-1.162A12.536,12.536,0,0,0,1.945,3.1l-.166.569A14.44,14.44,0,0,1,.552,2.8,1.281,1.281,0,0,1,0,1.9C0,1.086.13.675.386.675a2.1,2.1,0,0,1,.712.4A9.728,9.728,0,0,1,2.631,2.481a12.985,12.985,0,0,1,1.84,2.684,1.536,1.536,0,0,0,.41-.5,2.065,2.065,0,0,0,.308-.832,3.135,3.135,0,0,0,0-.318,10.462,10.462,0,0,0-.276-1.834,2.056,2.056,0,0,1-.362-.446A1.141,1.141,0,0,1,4.858.422.752.752,0,0,1,5.244,0,1.578,1.578,0,0,0,5.7.789a1.729,1.729,0,0,0,.768.516.573.573,0,0,1-.232.391l-.448.57v.526a4.849,4.849,0,0,1-.429,1.938,5.547,5.547,0,0,1-.393.715,2.361,2.361,0,0,0-.25.434,10.743,10.743,0,0,1,.428,1.481,2.51,2.51,0,0,1,0,.348.552.552,0,0,1-.541.659ZM4.307,6.123a3.447,3.447,0,0,1-1.061.856,8.051,8.051,0,0,1-.712.4.724.724,0,0,0,.4.122.732.732,0,0,0,.179-.022c.4-.008.9-.041,1.508-.1h0A3.267,3.267,0,0,0,4.307,6.123Z" transform="translate(35.46 11.572)" fill="#fff"/><path d="M1.147,6.661A5.621,5.621,0,0,1,.656,8.446Q.423,5.7,0,1.8A4.064,4.064,0,0,1,.779,0Q.841.1,1,3.351Z" transform="translate(43.28 11.814)" fill="#fff"/><path d="M2.632,6.977h0a12.278,12.278,0,0,1-1.453-.238C.4,6.568,0,6.416,0,6.287c0-.069.047-.1.147-.1A3.184,3.184,0,0,1,.828,6.3a3.074,3.074,0,0,0,.7.116,1.348,1.348,0,0,0,.454-.092A5.535,5.535,0,0,0,3.9,5.1,2.606,2.606,0,0,0,4.89,3.27,1.977,1.977,0,0,0,4.8,2.659a1.947,1.947,0,0,1-.7.942,1.337,1.337,0,0,1-.724.086.784.784,0,0,1-.644-.49,1.925,1.925,0,0,1-.184-.832A2.976,2.976,0,0,1,3.1.954C3.505.321,3.858,0,4.147,0c.208,0,.451.269.724.8a3.6,3.6,0,0,1,.441,1.707A6.2,6.2,0,0,1,4.7,5.234,4.17,4.17,0,0,1,3.859,6.4,1.612,1.612,0,0,1,2.632,6.977ZM3.784,1.23h0a.762.762,0,0,0-.534.3.824.824,0,0,0-.3.544.487.487,0,0,0,.386.391,1.538,1.538,0,0,0,.577.116.8.8,0,0,0,.638-.2,1.491,1.491,0,0,0-.215-.715.721.721,0,0,0-.553-.434Z" transform="translate(44.662 15.901)" fill="#fff"/><path d="M1.112,6.747a1.637,1.637,0,0,1-.645-.131A.7.7,0,0,1,0,5.943,4.438,4.438,0,0,1,1.123,3.766L2.08,2.543a3.678,3.678,0,0,0,.613.526c.317.232.523.386.613.459a1.128,1.128,0,0,1,.345.844A3.461,3.461,0,0,1,3.239,5.6a3.1,3.1,0,0,1-.583.611,2.614,2.614,0,0,1-1.319.526A1.673,1.673,0,0,1,1.112,6.747ZM1.73,3.773a12.534,12.534,0,0,0-.8,1.076.759.759,0,0,0-.079.318.491.491,0,0,0,.492.515.5.5,0,0,0,.121-.015,2.987,2.987,0,0,0,1.153-.232A.472.472,0,0,0,2.864,5C2.865,4.639,2.483,4.228,1.73,3.773ZM2.8,1.6h0L1.656.911l-.35.654L.079.856.579,0,1.7.709,2.1.1l1.2.691L2.8,1.6Z" transform="translate(53.875 13.119)" fill="#fff"/><path d="M5.189,2.978A4.175,4.175,0,0,1,4.3,5.344,2.186,2.186,0,0,1,2.607,6.475a5.035,5.035,0,0,1-1.484-.391Q0,5.654,0,5.378a.073.073,0,0,1,.061-.055,5.6,5.6,0,0,1,.656.251,2.765,2.765,0,0,0,.975.251A3.135,3.135,0,0,0,3.636,4.731a2.971,2.971,0,0,0,1.135-1.9q0-.581-1.386-1.578Q3.465.911,3.661,0A4.289,4.289,0,0,1,4.7,1.064a3.62,3.62,0,0,1,.491,1.914Z" transform="translate(57.046 16.36)" fill="#fff"/><path d="M2.534,8.023H.528Q.319,4.281,0,.9L.687,0l.331,3.919a23.709,23.709,0,0,0,.337,2.806l.123.1a.737.737,0,0,0,.552.165h.534V8.029Z" transform="translate(63.603 11.834)" fill="#fff"/><path d="M2.03,1.039H0V0H2.03Z" transform="translate(65.781 18.817)" fill="#fff"/><path d="M2.036,1.039H0V0H2.03V1.039Z" transform="translate(67.536 18.817)" fill="#fff"/><path d="M4.744,6.62h0L3.609,5.911l.5-.8,1.135.67-.5.838ZM8.5,3.805l0,0-.022-.038H5.655A.609.609,0,0,1,5.146,3.2a7.917,7.917,0,0,1-.135-.844,3.706,3.706,0,0,1-.613.477,4.835,4.835,0,0,0-.613.465,1.647,1.647,0,0,1-1.152.467l-.075,0H0V2.721H2.589A4.235,4.235,0,0,0,5.128,1.59L3.3,1.241,2.73,1.119a2.219,2.219,0,0,0-1.165.538.071.071,0,0,0,0-.043,1.266,1.266,0,0,1,.117-.452C2.013.391,2.49,0,3.1,0A6.6,6.6,0,0,1,4.761.342a10.179,10.179,0,0,0,2.5.5h.712c-.09.248-.241.61-.448,1.076H7.157c-.065,0-.131,0-.2,0a3.931,3.931,0,0,0-1.49.292.615.615,0,0,0,.264.5l.117.06H8.5V3.805Z" transform="translate(69.364 16.092)" fill="#fff"/><path d="M3.92,6.339H3.356a.75.75,0,0,1-.417-.14.728.728,0,0,1-.178-.264.607.607,0,0,0-.135-.22.726.726,0,0,0-.239.312.574.574,0,0,1-.275.311H0V5.3H2.723V3.927c.234-.311.552-.691.945-1.13a.276.276,0,0,1,0,.122,11.973,11.973,0,0,1-.233,1.957,2.191,2.191,0,0,0-.043.306c0,.081.07.122.209.122H3.92V6.338ZM3.069,1.6h0L1.9.905l-.363.61L.37.856.87,0,2,.709,2.385.1,3.569.786l-.5.818Z" transform="translate(77.595 13.518)" fill="#fff"/><path d="M3.607,1.088,2.994,2.262l-.159-.043L3.185,5.7A6.916,6.916,0,0,1,3.044,6.86q-.154.814-.307.813H0V6.634H2.57a.31.31,0,0,0,.043-.251A37.478,37.478,0,0,0,2,1.724H1.926a.361.361,0,0,1-.2-.306A.51.51,0,0,1,1.8,1.167L2.34.225q.154-.275.227-.214a.1.1,0,0,1,.092.1A.472.472,0,0,1,2.6.282a.483.483,0,0,0-.055.171.2.2,0,0,0,.123.165Q3.165.868,3.607,1.088Z" transform="translate(81.264 12.183)" fill="#fff"/><path d="M1.147,6.646A5.62,5.62,0,0,1,.656,8.431Q.423,5.686,0,1.785A3.989,3.989,0,0,1,.81,0q.062.1.221,3.351Z" transform="translate(86.354 11.829)" fill="#fff"/><path d="M1.112,6.756a1.637,1.637,0,0,1-.645-.131A.7.7,0,0,1,0,5.952,4.438,4.438,0,0,1,1.123,3.775L2.08,2.552a3.709,3.709,0,0,0,.613.526c.317.232.523.386.613.459a1.128,1.128,0,0,1,.345.844A3.461,3.461,0,0,1,3.239,5.6a3.1,3.1,0,0,1-.583.611,2.614,2.614,0,0,1-1.319.526A1.673,1.673,0,0,1,1.112,6.756Zm.612-2.975a12.172,12.172,0,0,0-.8,1.076.747.747,0,0,0-.08.318.491.491,0,0,0,.613.5,2.966,2.966,0,0,0,1.153-.257A.47.47,0,0,0,2.858,5C2.858,4.649,2.477,4.237,1.724,3.782ZM2.8,1.611h0L1.65.911,1.3,1.565.073.856.573,0,1.7.709,2.089.1,3.294.8,2.8,1.61Z" transform="translate(92.066 13.11)" fill="#fff"/><path d="M5.2,3a4.174,4.174,0,0,1-.889,2.366A2.2,2.2,0,0,1,2.608,6.5a5.035,5.035,0,0,1-1.484-.391Q0,5.68,0,5.408A.074.074,0,0,1,.06,5.322a.067.067,0,0,1,.027,0,5.708,5.708,0,0,1,.656.251,2.765,2.765,0,0,0,.975.251A3.135,3.135,0,0,0,3.662,4.73a3.073,3.073,0,0,0,1.153-1.9q0-.581-1.386-1.577Q3.509.911,3.705,0A4.289,4.289,0,0,1,4.742,1.064,3.624,3.624,0,0,1,5.2,3Z" transform="translate(95.23 16.335)" fill="#fff"/><path d="M1.147,6.661A5.621,5.621,0,0,1,.656,8.446Q.423,5.7,0,1.8A4.064,4.064,0,0,1,.779,0Q.841.1,1,3.351Z" transform="translate(101.966 11.814)" fill="#fff"/><path d="M2.608,9.392h0A5.041,5.041,0,0,1,1.124,9C.379,8.717,0,8.481,0,8.3A.075.075,0,0,1,.06,8.215H.087a5.743,5.743,0,0,1,.656.251,2.765,2.765,0,0,0,.975.251A3.132,3.132,0,0,0,3.662,7.623,2.957,2.957,0,0,0,4.8,5.723c0-.386-.466-.917-1.386-1.577.051-.217.137-.6.276-1.254A4.284,4.284,0,0,1,4.711,3.981,3.632,3.632,0,0,1,5.2,5.895a4.155,4.155,0,0,1-.889,2.366,2.232,2.232,0,0,1-1.7,1.131ZM3.39,1.56h0L2.206.832,2.715,0,3.89.716l-.5.842Z" transform="translate(103.308 13.442)" fill="#fff"/><path d="M2.632,6.976h0a12.278,12.278,0,0,1-1.453-.238C.4,6.567,0,6.415,0,6.286c0-.067.048-.1.147-.1A3.185,3.185,0,0,1,.828,6.3a3.089,3.089,0,0,0,.7.116h.016a1.336,1.336,0,0,0,.438-.073A5.534,5.534,0,0,0,3.89,5.1,2.606,2.606,0,0,0,4.878,3.27a2.005,2.005,0,0,0-.086-.611,1.946,1.946,0,0,1-.7.942,1.329,1.329,0,0,1-.515.1,1.348,1.348,0,0,1-.21-.016.784.784,0,0,1-.643-.49,1.925,1.925,0,0,1-.185-.832A2.987,2.987,0,0,1,3.086.954C3.493.321,3.846,0,4.135,0c.208,0,.451.269.725.8a3.615,3.615,0,0,1,.447,1.705,6.208,6.208,0,0,1-.614,2.727A4.152,4.152,0,0,1,3.859,6.4,1.612,1.612,0,0,1,2.632,6.976ZM3.778,1.229h0a.766.766,0,0,0-.535.3.828.828,0,0,0-.3.544.49.49,0,0,0,.386.391,1.538,1.538,0,0,0,.577.116.8.8,0,0,0,.638-.2,1.491,1.491,0,0,0-.215-.715.718.718,0,0,0-.552-.434Z" transform="translate(108.18 15.902)" fill="#fff"/><path d="M.945,0l1.4,3.669L3.768,0h.939V4.891H3.889V1.513L2.6,4.888h-.54L.828,1.513V4.894H0V0Z" transform="translate(0 25.146)" fill="#fff"/><path d="M.81,4.891H0V1.357H.81V4.89ZM.81.7H0V0H.81V.7Z" transform="translate(5.355 25.146)" fill="#fff"/><path d="M0,.086H.82V.373A1.681,1.681,0,0,1,1.3.086,1.859,1.859,0,0,1,1.857,0a1.539,1.539,0,0,1,.5.073,1.043,1.043,0,0,1,.374.214.918.918,0,0,1,.233.336,1.22,1.22,0,0,1,.08.446V3.582H2.259V1.134A.641.641,0,0,0,2.13.694.46.46,0,0,0,1.78.559a.908.908,0,0,0-.374.079A1.026,1.026,0,0,0,1.1.846a.925.925,0,0,0-.2.293.834.834,0,0,0-.074.342V3.59H0Z" transform="translate(6.735 26.416)" fill="#fff"/><path d="M.8,4.891H0V1.357H.8V4.89ZM.8.7H0V0H.8V.7Z" transform="translate(10.426 25.146)" fill="#fff"/><path d="M.827,2.42a.879.879,0,0,0,.055.318.607.607,0,0,0,.135.214.486.486,0,0,0,.2.116.816.816,0,0,0,.251.037,1.42,1.42,0,0,0,.239,0,.759.759,0,0,0,.227-.073.485.485,0,0,0,.172-.147.389.389,0,0,0,.067-.238.373.373,0,0,0-.061-.22.583.583,0,0,0-.172-.159A1.406,1.406,0,0,0,1.7,2.152l-.294-.1-.457-.17A2.018,2.018,0,0,1,.527,1.65a1.066,1.066,0,0,1-.294-.293A.723.723,0,0,1,.116.941.769.769,0,0,1,.226.525a.918.918,0,0,1,.3-.293A1.442,1.442,0,0,1,.955.055,2.161,2.161,0,0,1,1.464,0a2.33,2.33,0,0,1,.552.061,1.374,1.374,0,0,1,.448.19.946.946,0,0,1,.3.324,1.035,1.035,0,0,1,.123.471h-.81A.61.61,0,0,0,2,.814.462.462,0,0,0,1.868.667.535.535,0,0,0,1.684.588a.969.969,0,0,0-.215,0A.615.615,0,0,0,1.076.7.341.341,0,0,0,.941.979a.33.33,0,0,0,.061.2.621.621,0,0,0,.172.153,1.425,1.425,0,0,0,.251.122l.294.11.454.171a2.234,2.234,0,0,1,.411.208,1.105,1.105,0,0,1,.294.275.608.608,0,0,1,.11.373.962.962,0,0,1-.123.5,1.011,1.011,0,0,1-.331.336,1.526,1.526,0,0,1-.485.2,2.612,2.612,0,0,1-.577.061,1.958,1.958,0,0,1-.558-.079,1.372,1.372,0,0,1-.46-.232,1.148,1.148,0,0,1-.319-.385A1.265,1.265,0,0,1,0,2.448H.834Z" transform="translate(11.803 26.449)" fill="#fff"/><path d="M1.35,0V1.015h.528v.55H1.35V3.723a.41.41,0,0,0,.061.263.21.21,0,0,0,.153.086h.123l.264-.043v.532l-.3.061a1.974,1.974,0,0,1-.282,0,1.3,1.3,0,0,1-.319-.037.782.782,0,0,1-.27-.122A.615.615,0,0,1,.6,4.243a.748.748,0,0,1-.067-.336V1.565H0v-.55H.534V0Z" transform="translate(15.059 25.488)" fill="#fff"/><path d="M0,.057H.724L.773.381A.961.961,0,0,1,1.11.1.922.922,0,0,1,1.521,0h.172L1.9.055v.66A1.938,1.938,0,0,0,1.5.593.614.614,0,0,0,1.208.66.671.671,0,0,0,.987.85a.859.859,0,0,0-.135.275,1.136,1.136,0,0,0-.049.33V3.571H0Z" transform="translate(17.482 26.446)" fill="#fff"/><path d="M1.7,2.449,2.529,0h.834l-1.5,4.28a1.484,1.484,0,0,1-.184.361,1.09,1.09,0,0,1-.233.238.864.864,0,0,1-.521.177H.692A1.359,1.359,0,0,1,.4,4.973V4.362l.123.049.135.049L.779,4.5h.08a.117.117,0,0,0,.092-.049.613.613,0,0,0,.08-.165c0-.049.049-.1.067-.159s.037-.1.049-.147L1.3,3.5,0,0H.834Z" transform="translate(19.473 26.5)" fill="#fff"/><path d="M1.745,3.676H1.668a1.741,1.741,0,0,1-.692-.142,1.522,1.522,0,0,1-.553-.4,1.7,1.7,0,0,1-.331-.581A2.193,2.193,0,0,1,0,1.852a2.2,2.2,0,0,1,.11-.708A1.732,1.732,0,0,1,.442.533,1.516,1.516,0,0,1,.977.141,1.728,1.728,0,0,1,1.662,0H1.75a1.769,1.769,0,0,1,.692.141,1.536,1.536,0,0,1,.54.392,1.662,1.662,0,0,1,.331.611,2.273,2.273,0,0,1,0,1.418,1.671,1.671,0,0,1-.331.581,1.571,1.571,0,0,1-.54.391A1.767,1.767,0,0,1,1.745,3.676ZM1.684.594a.743.743,0,0,0-.374.1.889.889,0,0,0-.283.275,1.3,1.3,0,0,0-.177.4,1.858,1.858,0,0,0-.061.482H.8a1.835,1.835,0,0,0,.061.49,1.306,1.306,0,0,0,.178.4.89.89,0,0,0,.282.269.754.754,0,0,0,.748,0,.89.89,0,0,0,.288-.269,1.365,1.365,0,0,0,.184-.4,2.008,2.008,0,0,0,0-.978,1.351,1.351,0,0,0-.184-.4.919.919,0,0,0-.3-.269A.743.743,0,0,0,1.684.594Z" transform="translate(24.597 26.424)" fill="#fff"/><path d="M.61,1.5V.721A.684.684,0,0,1,.671.434.653.653,0,0,1,.849.208.837.837,0,0,1,1.125.055,1.155,1.155,0,0,1,1.493,0a.963.963,0,0,1,.276.049,1.271,1.271,0,0,1,.3.141V.728L1.781.612,1.658.569a.253.253,0,0,0-.166.055.245.245,0,0,0-.067.2v.685h.613v.569H1.425V5.05H.61V2.073H0V1.5Z" transform="translate(28.333 24.999)" fill="#fff"/><path d="M.771,2.508A2.978,2.978,0,0,0,.9,3.431a2,2,0,0,0,.337.648,1.373,1.373,0,0,0,.478.385,1.232,1.232,0,0,0,.54.128,1.127,1.127,0,0,0,.509-.11,1.358,1.358,0,0,0,.4-.3,1.7,1.7,0,0,0,.282-.422,2.121,2.121,0,0,0,.166-.489h.822a2.82,2.82,0,0,1-.251.74,2.169,2.169,0,0,1-.448.611,2.06,2.06,0,0,1-.613.4,2.214,2.214,0,0,1-.828.147,2.4,2.4,0,0,1-.951-.177,2,2,0,0,1-.724-.52,2.342,2.342,0,0,1-.46-.838A3.6,3.6,0,0,1,0,2.515,2.886,2.886,0,0,1,.067,1.9a2.721,2.721,0,0,1,.2-.611A2.492,2.492,0,0,1,.6.779,2.144,2.144,0,0,1,1.616.1,2.25,2.25,0,0,1,2.291,0a2.6,2.6,0,0,1,.828.122,2.069,2.069,0,0,1,.613.336,1.955,1.955,0,0,1,.454.514,2.638,2.638,0,0,1,.282.648H3.6a1.718,1.718,0,0,0-.521-.8,1.306,1.306,0,0,0-.84-.263,1.173,1.173,0,0,0-.613.159,1.512,1.512,0,0,0-.466.428,2.074,2.074,0,0,0-.3.611,2.532,2.532,0,0,0-.092.748Z" transform="translate(32.378 25.016)" fill="#fff"/><path d="M1.744,3.676H1.667a1.75,1.75,0,0,1-.692-.142,1.525,1.525,0,0,1-.534-.4A1.7,1.7,0,0,1,.11,2.553a2.2,2.2,0,0,1-.11-.7,2.2,2.2,0,0,1,.11-.708A1.732,1.732,0,0,1,.441.533,1.52,1.52,0,0,1,.975.141,1.73,1.73,0,0,1,1.662,0h.087a1.769,1.769,0,0,1,.692.141,1.536,1.536,0,0,1,.54.392,1.673,1.673,0,0,1,.331.611,2.272,2.272,0,0,1,0,1.418,1.671,1.671,0,0,1-.331.581,1.571,1.571,0,0,1-.54.391A1.767,1.767,0,0,1,1.744,3.676ZM.8,1.852h0a1.84,1.84,0,0,0,.061.49,1.283,1.283,0,0,0,.178.4.89.89,0,0,0,.282.269.754.754,0,0,0,.748,0,.909.909,0,0,0,.288-.269,1.34,1.34,0,0,0,.184-.4,1.986,1.986,0,0,0,0-.978,1.326,1.326,0,0,0-.184-.4A.908.908,0,0,0,2.069.695a.741.741,0,0,0-.748,0,.888.888,0,0,0-.282.275,1.28,1.28,0,0,0-.178.4A1.9,1.9,0,0,0,.8,1.852Z" transform="translate(37.332 26.424)" fill="#fff"/><path d="M0,.089H.8V.352a1.279,1.279,0,0,1,.46-.263A1.628,1.628,0,0,1,1.727.016a1.191,1.191,0,0,1,.491.1,1.078,1.078,0,0,1,.417.355A1.225,1.225,0,0,1,2.874.257,1.389,1.389,0,0,1,3.15.11,1.655,1.655,0,0,1,3.763,0a1.413,1.413,0,0,1,.491.086A1.187,1.187,0,0,1,4.64.318,1.054,1.054,0,0,1,4.9.667,1.028,1.028,0,0,1,4.99,1.1V3.608H4.15V1.26a.928.928,0,0,0,0-.324A.6.6,0,0,0,4.027.728a.419.419,0,0,0-.172-.11A.571.571,0,0,0,3.4.655a.8.8,0,0,0-.239.183.957.957,0,0,0-.172.275.888.888,0,0,0-.067.342V3.619H2.1V1.259A.954.954,0,0,0,2.046.935.615.615,0,0,0,1.929.7.407.407,0,0,0,1.77.587.5.5,0,0,0,1.6.556a.612.612,0,0,0-.313.086.965.965,0,0,0-.258.22,1.07,1.07,0,0,0-.172.293A.845.845,0,0,0,.8,1.461V3.583H0Z" transform="translate(41.299 26.414)" fill="#fff"/><path d="M0,.089H.8V.352A1.28,1.28,0,0,1,1.254.089,1.628,1.628,0,0,1,1.72.016a1.19,1.19,0,0,1,.491.1,1.078,1.078,0,0,1,.417.355A1.225,1.225,0,0,1,2.867.257,1.389,1.389,0,0,1,3.143.11,1.655,1.655,0,0,1,3.756,0a1.413,1.413,0,0,1,.491.086,1.187,1.187,0,0,1,.386.232,1.054,1.054,0,0,1,.258.349,1.028,1.028,0,0,1,.092.434V3.608H4.167V1.26A.924.924,0,0,0,4.118.936.6.6,0,0,0,3.995.728a.419.419,0,0,0-.172-.11.571.571,0,0,0-.454.037A.8.8,0,0,0,3.13.838a.958.958,0,0,0-.172.275.888.888,0,0,0-.067.342V3.619h-.8V1.259A.954.954,0,0,0,2.042.935.614.614,0,0,0,1.925.7a.407.407,0,0,0-.159-.11.5.5,0,0,0-.141,0,.612.612,0,0,0-.313.086.965.965,0,0,0-.258.22,1.07,1.07,0,0,0-.172.293.844.844,0,0,0-.061.306V3.614H0Z" transform="translate(46.895 26.414)" fill="#fff"/><path d="M1.707,3.671h0a1.653,1.653,0,0,1-.693-.153,1.614,1.614,0,0,1-.546-.4,1.9,1.9,0,0,1-.344-.611A2.11,2.11,0,0,1,0,1.786a1.917,1.917,0,0,1,.123-.679A1.719,1.719,0,0,1,.467.538a1.6,1.6,0,0,1,.54-.391A1.691,1.691,0,0,1,1.7,0h.052a1.785,1.785,0,0,1,.666.128A1.5,1.5,0,0,1,2.946.49a1.594,1.594,0,0,1,.331.544,1.968,1.968,0,0,1,.141.691v.257H.836A1.464,1.464,0,0,0,.923,2.4a1.307,1.307,0,0,0,.19.361.949.949,0,0,0,.275.251.654.654,0,0,0,.337.093.879.879,0,0,0,.853-.686h.753a1.515,1.515,0,0,1-.582.917,1.628,1.628,0,0,1-.479.246,1.792,1.792,0,0,1-.54.086Zm-.03-3.1a.716.716,0,0,0-.314.073.832.832,0,0,0-.265.2,1.019,1.019,0,0,0-.178.293,1.1,1.1,0,0,0-.079.348H2.559l0,0a1.226,1.226,0,0,0-.075-.367A.9.9,0,0,0,2.309.828a.817.817,0,0,0-.27-.19A.845.845,0,0,0,1.708.571h-.03Z" transform="translate(52.462 26.441)" fill="#fff"/><path d="M0,.057H.742V.381A.961.961,0,0,1,1.079.1.922.922,0,0,1,1.49,0h.172L1.9.055v.66A1.938,1.938,0,0,0,1.5.593.614.614,0,0,0,1.207.66.671.671,0,0,0,.986.85a.859.859,0,0,0-.135.275,1.136,1.136,0,0,0-.049.33V3.571H0Z" transform="translate(56.366 26.446)" fill="#fff"/><path d="M2.363,1.2a1.059,1.059,0,0,0-.27-.514A.615.615,0,0,0,1.651.532a.662.662,0,0,0-.362.1.858.858,0,0,0-.264.263,1.286,1.286,0,0,0-.166.385A1.825,1.825,0,0,0,.8,1.745a2.118,2.118,0,0,0,.055.489,1.51,1.51,0,0,0,.166.428,1,1,0,0,0,.264.3.567.567,0,0,0,.35.116A.539.539,0,0,0,1.9,3.011a.692.692,0,0,0,.209-.177,1.036,1.036,0,0,0,.147-.263,1.684,1.684,0,0,0,.092-.318H3.2a1.831,1.831,0,0,1-.166.611,1.374,1.374,0,0,1-.331.44,1.412,1.412,0,0,1-.478.275,1.884,1.884,0,0,1-.613.1,1.486,1.486,0,0,1-.73-.171,1.538,1.538,0,0,1-.5-.44,1.863,1.863,0,0,1-.294-.611A2.54,2.54,0,0,1,0,1.778a2.014,2.014,0,0,1,.117-.7A1.7,1.7,0,0,1,.454.515,1.552,1.552,0,0,1,.975.136,1.646,1.646,0,0,1,1.662,0a1.785,1.785,0,0,1,.613.092A1.414,1.414,0,0,1,2.729.35a1.367,1.367,0,0,1,.313.385,1.78,1.78,0,0,1,.178.489H2.375Z" transform="translate(58.659 26.472)" fill="#fff"/><path d="M1.7,3.681h0a1.638,1.638,0,0,1-.694-.153,1.619,1.619,0,0,1-.54-.41,1.9,1.9,0,0,1-.344-.611A2.11,2.11,0,0,1,0,1.787a1.917,1.917,0,0,1,.123-.679A1.719,1.719,0,0,1,.467.538a1.6,1.6,0,0,1,.54-.391A1.691,1.691,0,0,1,1.7,0h.052a1.784,1.784,0,0,1,.666.128A1.5,1.5,0,0,1,2.946.49a1.583,1.583,0,0,1,.331.544,1.927,1.927,0,0,1,.117.685v.257H.873l0,.017a1.46,1.46,0,0,0,.086.421,1.332,1.332,0,0,0,.19.362.95.95,0,0,0,.276.25.653.653,0,0,0,.337.093.877.877,0,0,0,.853-.685h.707a1.5,1.5,0,0,1-.215.526,1.529,1.529,0,0,1-.368.391,1.625,1.625,0,0,1-.478.246,1.773,1.773,0,0,1-.54.086Zm.016-3.1A.716.716,0,0,0,1.4.654a.861.861,0,0,0-.264.2,1.019,1.019,0,0,0-.178.293,1.076,1.076,0,0,0-.08.348H2.606l-.006,0a1.212,1.212,0,0,0-.074-.367A.886.886,0,0,0,2.349.838a.816.816,0,0,0-.27-.19A.845.845,0,0,0,1.748.581H1.718Z" transform="translate(62.365 26.431)" fill="#fff"/><path d="M3.084,3.631a1,1,0,0,1-.11-.006H2.95a.7.7,0,0,1-.362-.1A.617.617,0,0,1,2.343,3.2a1.486,1.486,0,0,1-.283.22,1.4,1.4,0,0,1-.288.128,1.493,1.493,0,0,1-.293.061H1.154a1.506,1.506,0,0,1-.443-.067,1.147,1.147,0,0,1-.373-.2.914.914,0,0,1-.245-.312A.954.954,0,0,1,0,2.615.806.806,0,0,1,.1,2.2a.936.936,0,0,1,.258-.281,1.464,1.464,0,0,1,.362-.19c.13-.047.268-.093.411-.135l.411-.1A2.555,2.555,0,0,0,1.9,1.389a.855.855,0,0,0,.258-.147.289.289,0,0,0,.1-.22A.434.434,0,0,0,2.1.655,1.046,1.046,0,0,0,1.367.563a.567.567,0,0,0-.2.092A.551.551,0,0,0,1.026.82a.68.68,0,0,0-.08.245H.117A.939.939,0,0,1,.269.6,1.229,1.229,0,0,1,.619.261a1.584,1.584,0,0,1,.473-.2A2.157,2.157,0,0,1,1.607,0h.024a2.6,2.6,0,0,1,.527.055,1.488,1.488,0,0,1,.473.184,1.008,1.008,0,0,1,.33.329.915.915,0,0,1,.123.49v1.8a.421.421,0,0,0,0,.165.092.092,0,0,0,.067.073L3.47,3v.563l-.276.068A1,1,0,0,1,3.084,3.631Zm-.8-1.825a1.024,1.024,0,0,1-.241.1L1.742,2l-.319.1a1.5,1.5,0,0,0-.288.129A.7.7,0,0,0,.926,2.4a.379.379,0,0,0-.08.245.553.553,0,0,0,.037.214A.386.386,0,0,0,.984,3a.376.376,0,0,0,.14.073.633.633,0,0,0,.077,0,.616.616,0,0,0,.076,0A.942.942,0,0,0,1.812,2.9a1.659,1.659,0,0,0,.472-.537Z" transform="translate(67.712 26.45)" fill="#fff"/><path d="M0,.086H.816V.373A1.68,1.68,0,0,1,1.331.086,1.859,1.859,0,0,1,1.883,0a1.539,1.539,0,0,1,.5.073,1.043,1.043,0,0,1,.374.214A.918.918,0,0,1,2.99.623a1.22,1.22,0,0,1,.08.446V3.582H2.254V1.134A.641.641,0,0,0,2.125.682a.46.46,0,0,0-.35-.135A.908.908,0,0,0,1.4.626a1.026,1.026,0,0,0-.307.208.925.925,0,0,0-.2.293.834.834,0,0,0-.074.342V3.578H0Z" transform="translate(71.725 26.416)" fill="#fff"/><path d="M1.546,4.963A1.568,1.568,0,0,1,.9,4.822a1.442,1.442,0,0,1-.5-.392A1.678,1.678,0,0,1,.1,3.82,2.423,2.423,0,0,1,0,3.105,2.525,2.525,0,0,1,.1,2.39a1.709,1.709,0,0,1,.294-.611,1.393,1.393,0,0,1,.491-.391,1.545,1.545,0,0,1,.641-.141h.041a1.137,1.137,0,0,1,.417.086,1.741,1.741,0,0,1,.4.221V0h.81V4.89h-.8V4.676a1.276,1.276,0,0,1-.381.213,1.2,1.2,0,0,1-.415.073H1.546ZM1.6,1.831a.576.576,0,0,0-.327.1.819.819,0,0,0-.245.274,1.423,1.423,0,0,0-.153.4,2.373,2.373,0,0,0,0,.991A1.354,1.354,0,0,0,1.03,4a.82.82,0,0,0,.245.269.616.616,0,0,0,.669,0A.809.809,0,0,0,2.189,4a1.421,1.421,0,0,0,.153-.4,2.289,2.289,0,0,0,.05-.5v-.04a2.292,2.292,0,0,0-.061-.477,1.373,1.373,0,0,0-.153-.385.828.828,0,0,0-.245-.263.574.574,0,0,0-.325-.1Z" transform="translate(75.291 25.147)" fill="#fff"/><path d="M.908,0V4.891H.092V0Z" transform="translate(80.601 25.146)" fill="#fff"/><path d="M0,.056H.816V.343a1.694,1.694,0,0,1,.5-.257A1.858,1.858,0,0,1,1.868,0a1.539,1.539,0,0,1,.5.073,1.043,1.043,0,0,1,.374.214.918.918,0,0,1,.233.336,1.22,1.22,0,0,1,.08.446V3.584h-.8V1.138A.641.641,0,0,0,2.126.686a.46.46,0,0,0-.35-.135A.908.908,0,0,0,1.4.63,1.026,1.026,0,0,0,1.1.838a.925.925,0,0,0-.2.293.834.834,0,0,0-.074.342V3.584H0Z" transform="translate(82.257 26.447)" fill="#fff"/><path d="M1.7,2.446,2.589,0h.834l-1.3,3.534h-.81L0,0H.846Z" transform="translate(85.513 26.503)" fill="#fff"/><path d="M1.73,3.671h0a1.661,1.661,0,0,1-.694-.153,1.612,1.612,0,0,1-.57-.4,1.9,1.9,0,0,1-.343-.611A2.11,2.11,0,0,1,0,1.786a1.917,1.917,0,0,1,.123-.679A1.718,1.718,0,0,1,.466.538a1.6,1.6,0,0,1,.54-.391A1.691,1.691,0,0,1,1.7,0h.052a1.785,1.785,0,0,1,.666.128A1.5,1.5,0,0,1,2.945.49a1.583,1.583,0,0,1,.331.544,1.967,1.967,0,0,1,.117.685v.257H.839l.021.006A1.455,1.455,0,0,0,.945,2.4a1.33,1.33,0,0,0,.19.361.942.942,0,0,0,.276.251.652.652,0,0,0,.337.093A.877.877,0,0,0,2.6,2.423h.754a1.5,1.5,0,0,1-.215.527,1.517,1.517,0,0,1-.368.391,1.626,1.626,0,0,1-.478.246,1.8,1.8,0,0,1-.54.086ZM1.7.571a.716.716,0,0,0-.314.073.838.838,0,0,0-.264.2,1.019,1.019,0,0,0-.178.293,1.075,1.075,0,0,0-.08.348H2.588l-.006,0a1.212,1.212,0,0,0-.074-.367A.886.886,0,0,0,2.331.828a.816.816,0,0,0-.27-.19A.845.845,0,0,0,1.73.571H1.7Z" transform="translate(89.153 26.441)" fill="#fff"/><path d="M.847,2.385A.88.88,0,0,0,.9,2.7a.608.608,0,0,0,.135.214.486.486,0,0,0,.2.116.819.819,0,0,0,.227.043,1.422,1.422,0,0,0,.239,0A.759.759,0,0,0,1.93,3,.485.485,0,0,0,2.1,2.856a.389.389,0,0,0,.067-.238.373.373,0,0,0-.061-.22.584.584,0,0,0-.172-.159,1.406,1.406,0,0,0-.245-.116l-.294-.1L.943,1.858A1.994,1.994,0,0,1,.532,1.65a1.066,1.066,0,0,1-.294-.293A.723.723,0,0,1,.121.941.769.769,0,0,1,.231.525.911.911,0,0,1,.525.232,1.442,1.442,0,0,1,.954.055,2.161,2.161,0,0,1,1.463,0a2.33,2.33,0,0,1,.552.061,1.373,1.373,0,0,1,.448.19.946.946,0,0,1,.3.324,1.034,1.034,0,0,1,.123.471h-.81A.611.611,0,0,0,2,.814.462.462,0,0,0,1.867.667.536.536,0,0,0,1.683.588a.969.969,0,0,0-.215,0A.615.615,0,0,0,1.075.7.341.341,0,0,0,.94.979a.326.326,0,0,0,.061.2.621.621,0,0,0,.172.153,1.426,1.426,0,0,0,.252.122l.294.11.454.171a2.234,2.234,0,0,1,.411.208,1.105,1.105,0,0,1,.294.275.608.608,0,0,1,.11.373.962.962,0,0,1-.123.5,1.011,1.011,0,0,1-.331.336,1.526,1.526,0,0,1-.485.2,2.613,2.613,0,0,1-.577.061,1.959,1.959,0,0,1-.558-.079,1.372,1.372,0,0,1-.46-.232,1.148,1.148,0,0,1-.319-.385A1.265,1.265,0,0,1,0,2.448H.846Z" transform="translate(93.064 26.485)" fill="#fff"/><path d="M1.315,0V1.016h.521v.55H1.308V3.724a.41.41,0,0,0,.061.263.209.209,0,0,0,.166.073h.123l.264-.043v.532l-.3.061a1.974,1.974,0,0,1-.282,0,1.3,1.3,0,0,1-.319-.037.782.782,0,0,1-.27-.122.616.616,0,0,1-.184-.22A.748.748,0,0,1,.5,3.895V1.565H0v-.55H.534V0h.781Z" transform="translate(96.37 25.487)" fill="#fff"/><path d="M0,.089H.8V.352A1.288,1.288,0,0,1,1.223.089,1.628,1.628,0,0,1,1.689.016a1.191,1.191,0,0,1,.491.1A1.078,1.078,0,0,1,2.6.471,1.225,1.225,0,0,1,2.836.257,1.371,1.371,0,0,1,3.112.11,1.655,1.655,0,0,1,3.725,0a1.413,1.413,0,0,1,.491.086A1.187,1.187,0,0,1,4.6.318,1.054,1.054,0,0,1,4.86.667a1.028,1.028,0,0,1,.092.434V3.608h-.8V1.26A.924.924,0,0,0,4.1.936.6.6,0,0,0,3.977.728a.419.419,0,0,0-.172-.11.571.571,0,0,0-.454.037.8.8,0,0,0-.239.183.957.957,0,0,0-.172.275.887.887,0,0,0-.068.342V3.619h-.81V1.259A.954.954,0,0,0,2.013.935.606.606,0,0,0,1.9.727a.407.407,0,0,0-.159-.11A.5.5,0,0,0,1.571.586a.612.612,0,0,0-.313.086A.965.965,0,0,0,1,.892a1.069,1.069,0,0,0-.172.293.844.844,0,0,0-.061.306V3.613H0Z" transform="translate(98.819 26.414)" fill="#fff"/><path d="M1.7,3.681h0a1.638,1.638,0,0,1-.694-.153,1.619,1.619,0,0,1-.54-.41,1.9,1.9,0,0,1-.344-.611A2.11,2.11,0,0,1,0,1.787a1.917,1.917,0,0,1,.123-.679A1.719,1.719,0,0,1,.467.538a1.6,1.6,0,0,1,.54-.391A1.691,1.691,0,0,1,1.7,0h.052a1.784,1.784,0,0,1,.666.128A1.493,1.493,0,0,1,2.946.49a1.594,1.594,0,0,1,.331.544,1.927,1.927,0,0,1,.117.685v.257H.83v.017a1.461,1.461,0,0,0,.086.421,1.309,1.309,0,0,0,.19.362.95.95,0,0,0,.276.25.653.653,0,0,0,.337.093.877.877,0,0,0,.853-.685h.754a1.5,1.5,0,0,1-.215.526,1.529,1.529,0,0,1-.368.391,1.625,1.625,0,0,1-.478.246,1.773,1.773,0,0,1-.54.086Zm-.03-3.1a.716.716,0,0,0-.314.073.842.842,0,0,0-.264.2,1.019,1.019,0,0,0-.178.293,1.076,1.076,0,0,0-.08.348H2.559l0,0a1.212,1.212,0,0,0-.074-.367A.886.886,0,0,0,2.3.838a.816.816,0,0,0-.27-.19A.845.845,0,0,0,1.7.581H1.671Z" transform="translate(104.368 26.431)" fill="#fff"/><path d="M0,.056H.816V.343a1.7,1.7,0,0,1,.5-.257A1.858,1.858,0,0,1,1.868,0a1.539,1.539,0,0,1,.5.073,1.043,1.043,0,0,1,.374.214.918.918,0,0,1,.233.336,1.22,1.22,0,0,1,.08.446V3.584h-.8V1.138A.641.641,0,0,0,2.126.686a.46.46,0,0,0-.35-.135A.908.908,0,0,0,1.4.63,1.026,1.026,0,0,0,1.1.838a.925.925,0,0,0-.2.293.833.833,0,0,0-.074.342V3.584H0Z" transform="translate(108.272 26.447)" fill="#fff"/><path d="M1.342,0V1.016H1.87v.55H1.342V3.724a.41.41,0,0,0,.061.263.209.209,0,0,0,.166.073h.123l.264-.043v.532l-.3.061a1.974,1.974,0,0,1-.282,0,1.3,1.3,0,0,1-.319-.037.782.782,0,0,1-.27-.122A.615.615,0,0,1,.6,4.231a.748.748,0,0,1-.067-.336V1.565H0v-.55H.534V0Z" transform="translate(111.585 25.487)" fill="#fff"/></g></svg>