<svg aria-hidden="true" style="position: absolute; width: 0; height: 0; overflow: hidden;" version="1.1" xmlns="http://www.w3.org/2000/svg" xmlns:xlink="http://www.w3.org/1999/xlink">
<defs>
<symbol id="mci-phone" viewBox="0 0 32 32">
<title>phone</title>
<path d="M14.47 8.825l-1.628 1.627c-0.9 0.899-0.898 2.361 0.005 3.264l5.426 5.421c0.909 0.909 2.366 0.905 3.266 0.005l1.628-1.627c0.602-0.601 1.576-0.604 2.178-0.002l5.977 5.972c0.901 0.901 0.906 2.357-0.004 3.265l-3.259 3.257c-2.1 2.098-5.912 2.65-8.461 1.126 0 0-4.083-1.717-10.523-8.151s-8.221-10.59-8.221-10.59c-1.485-2.571-0.981-6.363 1.113-8.455l3.259-3.257c0.904-0.903 2.361-0.91 3.268-0.004l5.977 5.972c0.601 0.601 0.603 1.573-0.002 2.177zM4.141 6.109c-1.112 1.111-1.301 3.335-0.624 4.747 0 0 1.086 1.969 1.578 2.694 1.453 2.142 3.474 4.581 6.154 7.259s5.106 4.684 7.225 6.116c0.715 0.483 2.703 1.571 2.703 1.571 1.287 0.673 3.576 0.47 4.708-0.662l2.721-2.719-4.349-4.345-0.544 0.543c-2.104 2.102-5.507 2.101-7.615-0.005l-5.426-5.421c-2.103-2.101-2.108-5.508-0.005-7.609l0.544-0.543-4.349-4.345-2.721 2.719z"></path>
</symbol>
<symbol id="mci-youtube" viewBox="0 0 32 32">
<title>youtube</title>
<path d="M5.225 4.537c0 0 3.604-0.364 10.47-0.364s10.478 0.364 10.478 0.364c2.159 0.154 4.236 1.97 4.585 4.071 0 0 0.633 2.312 0.633 7.13s-0.635 7.143-0.635 7.143c-0.372 2.087-2.419 3.91-4.587 4.052 0 0-3.934 0.37-10.474 0.37s-10.482-0.371-10.482-0.371c-2.157-0.15-4.232-1.963-4.581-4.064 0 0-0.633-2.312-0.633-7.13s0.635-7.143 0.635-7.143c0.372-2.087 2.426-3.914 4.59-4.059zM2.911 10.696c-0.183 1.368-0.295 3.047-0.295 5.043s0.111 3.673 0.294 5.037c0.104 0.773 0.305 1.68 0.305 1.68 0.15 0.905 1.216 1.846 2.248 1.919 0.106 0.010 1.907 0.138 2.676 0.177 2.209 0.114 4.742 0.182 7.557 0.182s5.346-0.068 7.553-0.182c0.768-0.040 2.567-0.167 2.672-0.177 1.033-0.069 2.094-1.008 2.259-1.936 0 0 0.197-0.881 0.301-1.657 0.183-1.368 0.295-3.047 0.295-5.043s-0.111-3.673-0.294-5.037c-0.104-0.773-0.305-1.68-0.305-1.68-0.15-0.906-1.22-1.852-2.192-1.921-0.169-0.016-1.864-0.14-2.612-0.179-2.156-0.111-4.719-0.178-7.677-0.178s-5.519 0.067-7.673 0.178c-0.748 0.039-2.62 0.179-2.62 0.179-0.957 0.064-2.026 1.010-2.191 1.938 0 0-0.197 0.881-0.301 1.657zM12.435 12.73c0.002-0.713 0.518-1.010 1.144-0.667l5.564 3.044c0.63 0.345 0.625 0.908-0.003 1.254l-5.579 3.072c-0.632 0.348-1.143 0.051-1.141-0.661l0.015-6.042z"></path>
</symbol>
<symbol id="mci-instagram" viewBox="0 0 32 32">
<title>instagram</title>
<path d="M7.992 0h16.015c4.414 0 7.992 3.578 7.992 7.992v16.015c0 4.414-3.578 7.992-7.992 7.992h-16.015c-4.414 0-7.992-3.578-7.992-7.992v-16.015c0-4.414 3.578-7.992 7.992-7.992zM3.2 24.008c0 2.647 2.145 4.792 4.792 4.792h16.015c2.647 0 4.792-2.145 4.792-4.792v-16.015c0-2.647-2.145-4.792-4.792-4.792h-16.015c-2.647 0-4.792 2.145-4.792 4.792v16.015zM8 16c0-4.418 3.582-8 8-8s8 3.582 8 8c0 4.418-3.582 8-8 8s-8-3.582-8-8zM20.8 16c0-2.651-2.149-4.8-4.8-4.8s-4.8 2.149-4.8 4.8c0 2.651 2.149 4.8 4.8 4.8s4.8-2.149 4.8-4.8zM24 9.6c-0.884 0-1.6-0.716-1.6-1.6s0.716-1.6 1.6-1.6c0.884 0 1.6 0.716 1.6 1.6s-0.716 1.6-1.6 1.6z"></path>
</symbol>
<symbol id="mci-twitter" viewBox="0 0 32 32">
<title>twitter</title>
<path d="M9.274 21.395c1.029 0.677 0.906 2.187-0.219 2.698-0.422 0.191-4.171 1.177-4.171 1.177 1.494 0.856 3.587 1.303 6.325 1.303 8.782 0 15.191-6.276 15.197-15.669 0-0.162-0.007-0.621-0.007-0.665 0-3.235-1.744-5.46-4.788-5.444-3.066 0.016-4.805 2.225-4.805 5.444 0 0.187-0.005 1.348-0.005 1.537 0 0.933-0.838 1.656-1.79 1.544-4.010-0.471-7.651-2.183-10.461-4.837 0 0-0.369 1.355-0.46 1.978 0.052 0.060 1.044 1.037 1.609 1.429 0.434 0.301 0.904 0.575 1.41 0.813 0.795 0.374 1.128 1.304 0.743 2.078s-1.341 1.097-2.136 0.723c-0.503-0.237-0.979-0.499-1.429-0.785 0.633 2.515 2.231 4.863 4.988 6.676zM30.303 4.811c1.612-0.084 2.178 0.891 1.249 2.18l-1.968 2.727c0.008 0.172 0.019 0.981 0.019 1.188-0.008 11.105-7.842 18.778-18.395 18.778-5.212 0-8.579-1.325-10.899-4.415-0.692-0.922-0.161-2.231 0.991-2.445 0.053-0.010 3.743-0.786 3.743-0.786-4.874-4.794-5.323-11.605-2.44-17.158 0.532-1.025 1.983-1.155 2.698-0.242 2.073 2.642 4.985 4.496 8.314 5.283 0.159-4.669 3.084-8.211 7.977-8.235 2.919-0.015 5.14 1.246 6.494 3.243l2.217-0.116z"></path>
</symbol>
<symbol id="mci-facebook" viewBox="0 0 32 32">
<title>facebook</title>
<path d="M27.208 28.8c0.88 0 1.592-0.712 1.592-1.592v-22.416c0-0.88-0.712-1.592-1.592-1.592h-22.416c-0.88 0-1.592 0.712-1.592 1.592v22.416c0 0.88 0.712 1.592 1.592 1.592h11.208v-9.6h-1.601c-0.884 0-1.6-0.716-1.6-1.6s0.716-1.6 1.6-1.6h1.601c0-3.035 0.343-4.948 1.766-6.541 1.408-1.575 3.053-2.259 4.634-2.259 0.884 0 1.6 0.716 1.6 1.6s-0.716 1.6-1.6 1.6c-0.699 0-1.469 0.32-2.248 1.191-0.709 0.793-0.952 2.155-0.952 4.409h3.2c0.884 0 1.6 0.716 1.6 1.6s-0.716 1.6-1.6 1.6h-3.2v9.6h8.008zM0 27.208v-22.416c0-2.647 2.145-4.792 4.792-4.792h22.416c2.647 0 4.792 2.145 4.792 4.792v22.416c0 2.647-2.145 4.792-4.792 4.792h-22.416c-2.647 0-4.792-2.145-4.792-4.792z"></path>
</symbol>
<symbol id="mci-download" viewBox="0 0 32 32">
<title>download</title>
<path fill="#e28432" style="fill: var(--color1, #e28432)" d="M16.002 12.667c0.357-0 0.713 0.152 0.988 0.464l3.932 4.44c0.545 0.615 0.548 1.615 0.004 2.23-0.548 0.619-1.428 0.612-1.975-0.005l-1.558-1.759v9.724c0 0.869-0.624 1.574-1.393 1.574-0.775 0-1.393-0.705-1.393-1.574v-9.724l-1.558 1.759c-0.545 0.615-1.431 0.619-1.975 0.005-0.548-0.619-0.542-1.613 0.004-2.23 0 0 3.613-4.079 3.916-4.422l0.020-0.023c0.273-0.309 0.629-0.462 0.986-0.459zM16 2.667c4.585 0 8.529 3.295 9.775 7.91 3.207 0 6.225 3.118 6.225 7.019 0 3.903-2.931 7.071-6.538 7.071v0h-3.643c-0.803 0-1.455-0.704-1.455-1.571s0.651-1.571 1.455-1.571v0h3.643c2 0 3.629-1.761 3.629-3.929s-1.628-3.929-3.629-3.929v0h-2.086l-0.204-1.311c-0.583-3.755-3.607-6.546-7.172-6.546s-6.589 2.791-7.172 6.546v0l-0.204 1.311h-2.086c-2 0-3.629 1.761-3.629 3.929s1.628 3.929 3.629 3.929v0h3.643c0.803 0 1.455 0.704 1.455 1.571s-0.651 1.571-1.455 1.571v0h-3.643c-3.61 0-6.538-3.171-6.538-7.071 0-3.804 2.784-6.91 6.265-7.065 0.663-3.665 4.744-7.863 9.735-7.863z"></path>
</symbol>
<symbol id="mci-services" viewBox="0 0 32 32">
<title>services</title>
<path d="M7 8.12h-4.48c-0.305 0.028-0.606-0.081-0.823-0.298s-0.325-0.518-0.298-0.822v-4.48c-0.028-0.305 0.081-0.606 0.297-0.823s0.518-0.325 0.823-0.298h4.48c0.305-0.028 0.606 0.081 0.822 0.297s0.325 0.518 0.297 0.823v4.48c-0.041 0.601-0.519 1.079-1.12 1.12zM3.64 5.88h2.24v-2.24h-2.24v2.24z"></path>
<path d="M18.2 8.12h-4.48c-0.305 0.028-0.606-0.081-0.822-0.298s-0.325-0.518-0.297-0.822v-4.48c-0.028-0.305 0.081-0.606 0.297-0.823s0.518-0.325 0.822-0.298h4.48c0.305-0.028 0.606 0.081 0.823 0.297s0.325 0.518 0.297 0.823v4.48c-0.041 0.601-0.519 1.079-1.12 1.12zM14.84 5.88h2.24v-2.24h-2.24v2.24z"></path>
<path d="M29.4 8.12h-4.48c-0.305 0.028-0.606-0.081-0.823-0.298s-0.325-0.518-0.297-0.822v-4.48c-0.028-0.305 0.081-0.606 0.297-0.823s0.518-0.325 0.823-0.298h4.48c0.305-0.028 0.606 0.081 0.823 0.297s0.325 0.518 0.297 0.823v4.48c-0.041 0.601-0.519 1.079-1.12 1.12zM26.040 5.88h2.24v-2.24h-2.24v2.24z"></path>
<path d="M7 19.32h-4.48c-0.305 0.028-0.606-0.081-0.823-0.297s-0.325-0.518-0.298-0.823v-4.48c-0.028-0.305 0.081-0.606 0.297-0.822s0.518-0.325 0.823-0.297h4.48c0.305-0.028 0.606 0.081 0.822 0.297s0.325 0.518 0.297 0.822v4.48c-0.041 0.601-0.519 1.079-1.12 1.12v0zM3.64 17.080h2.24v-2.24h-2.24v2.24z"></path>
<path d="M18.2 19.32h-4.48c-0.305 0.028-0.606-0.081-0.822-0.297s-0.325-0.518-0.297-0.823v-4.48c-0.028-0.305 0.081-0.606 0.297-0.822s0.518-0.325 0.822-0.297h4.48c0.305-0.028 0.606 0.081 0.823 0.297s0.325 0.518 0.297 0.822v4.48c-0.041 0.601-0.519 1.079-1.12 1.12v0zM14.84 17.080h2.24v-2.24h-2.24v2.24z"></path>
<path d="M29.4 19.32h-4.48c-0.305 0.028-0.606-0.081-0.823-0.297s-0.325-0.518-0.297-0.823v-4.48c-0.028-0.305 0.081-0.606 0.297-0.822s0.518-0.325 0.823-0.297h4.48c0.305-0.028 0.606 0.081 0.823 0.297s0.325 0.518 0.297 0.822v4.48c-0.041 0.601-0.519 1.079-1.12 1.12v0zM26.040 17.080h2.24v-2.24h-2.24v2.24z"></path>
<path d="M7 30.52h-4.48c-0.305 0.028-0.606-0.081-0.823-0.297s-0.325-0.518-0.298-0.823v-4.48c-0.028-0.305 0.081-0.606 0.297-0.823s0.518-0.325 0.823-0.297h4.48c0.305-0.028 0.606 0.081 0.822 0.297s0.325 0.518 0.297 0.823v4.48c-0.041 0.601-0.519 1.079-1.12 1.12zM3.64 28.28h2.24v-2.24h-2.24v2.24z"></path>
<path d="M18.2 30.52h-4.48c-0.305 0.028-0.606-0.081-0.822-0.297s-0.325-0.518-0.297-0.823v-4.48c-0.028-0.305 0.081-0.606 0.297-0.823s0.518-0.325 0.822-0.297h4.48c0.305-0.028 0.606 0.081 0.823 0.297s0.325 0.518 0.297 0.823v4.48c-0.041 0.601-0.519 1.079-1.12 1.12zM14.84 28.28h2.24v-2.24h-2.24v2.24z"></path>
</symbol>
<symbol id="mci-bell" viewBox="0 0 29 32">
<title>bell</title>
<path d="M14.458 32c-0.018 0-0.040 0-0.062 0-2.628 0-4.759-2.131-4.759-4.759 0-0.014 0-0.029 0-0.043v0.002h-4.818c-1.241-0.016-2.317-0.705-2.882-1.718l-0.009-0.017c-0.216-0.436-0.342-0.95-0.342-1.493 0-0.683 0.2-1.32 0.544-1.855l-0.008 0.014 2.698-3.567v-5.763c0.012-4.142 2.626-7.67 6.293-9.038l0.067-0.022v-0.542c0.046-1.775 1.495-3.197 3.277-3.199h0c1.71 0.010 3.092 1.399 3.092 3.11 0 0.031-0 0.063-0.001 0.094l0-0.005v0.542c1.935 0.673 3.543 1.875 4.698 3.433l0.019 0.026c1.144 1.539 1.831 3.477 1.831 5.575 0 0.009 0 0.018-0 0.026v-0.001 5.763l2.506 3.567c0.38 0.497 0.609 1.128 0.609 1.811 0 0.562-0.154 1.087-0.423 1.537l0.008-0.014c-0.499 1.016-1.516 1.709-2.697 1.735l-0.004 0h-4.819c-0.005 1.336-0.565 2.541-1.462 3.396l-0.002 0.002c-0.864 0.853-2.046 1.385-3.352 1.402l-0.003 0zM12.723 27.2c0.040 0.893 0.773 1.602 1.672 1.602 0.022 0 0.044-0 0.067-0.001l-0.003 0c0.853-0.046 1.529-0.742 1.542-1.599v-0.001zM14.458 6.4c-0.020-0-0.045-0-0.069-0-3.552 0-6.438 2.855-6.486 6.396l-0 0.005v5.763c0 0.003 0 0.007 0 0.011 0 0.702-0.218 1.354-0.591 1.89l0.007-0.011-0.194 0.346-2.306 3.199h19.277l-2.506-3.199-0.194-0.346c-0.362-0.523-0.577-1.171-0.577-1.869 0-0.007 0-0.014 0-0.022v0.001-5.763c0-0.004 0-0.008 0-0.013 0-3.518-2.845-6.372-6.36-6.387h-0.001zM27.181 11.2c-0.854-0.045-1.531-0.742-1.544-1.599v-0.001c0.005-0.088 0.007-0.191 0.007-0.295 0-1.444-0.512-2.769-1.364-3.803l0.008 0.010c-0.196-0.292-0.456-0.527-0.76-0.689l-0.011-0.005c0-0.075 0-0.115-0.194-0.135-0.383-0.177-0.678-0.491-0.824-0.879l-0.004-0.011c-0.060-0.157-0.095-0.339-0.095-0.529 0-0.241 0.056-0.469 0.155-0.672l-0.004 0.009c0.179-0.586 0.715-1.004 1.348-1.004 0.036 0 0.071 0.001 0.106 0.004l-0.005-0c0.241 0.001 0.472 0.043 0.686 0.118l-0.015-0.004v0.037c0 0.008 0.034 0.021 0.075 0.034s0.119 0.041 0.119 0.062c0.221 0.078 0.413 0.183 0.584 0.313l-0.005-0.004c0.535 0.347 0.983 0.777 1.34 1.277l0.010 0.015c1.212 1.506 1.946 3.441 1.946 5.548 0 0.211-0.007 0.42-0.022 0.628l0.002-0.028c0.002 0.030 0.003 0.066 0.003 0.101 0 0.83-0.673 1.503-1.503 1.503-0.015 0-0.030-0-0.045-0.001l0.002 0zM1.54 11.2c-0.853-0.047-1.529-0.744-1.54-1.603v-0.001c-0.002-0.079-0.004-0.172-0.004-0.265 0-2.213 0.725-4.257 1.95-5.908l-0.019 0.027c0.462-0.469 0.966-0.894 1.507-1.269l0.035-0.023 0.109-0.076c0.153-0.104 0.272-0.184 0.272-0.231 0.192-0.037 0.192-0.076 0.192-0.096l0.194-0.020v-0.013l0.556 1.42-0.555-1.425c0.164-0.073 0.355-0.116 0.556-0.116 0.006 0 0.012 0 0.018 0h-0.001c0.682 0.015 1.268 0.414 1.549 0.99l0.005 0.010c0.032 0.129 0.051 0.278 0.051 0.43 0 0.717-0.408 1.339-1.005 1.647l-0.010 0.005s-0.020 0.015-0.050 0.026c-0.057 0.023-0.141 0.057-0.141 0.109-0.315 0.168-0.574 0.403-0.766 0.687l-0.005 0.007c-0.737 0.983-1.18 2.224-1.18 3.568 0 0.181 0.008 0.36 0.024 0.537l-0.002-0.023c-0.038 0.894-0.772 1.605-1.672 1.605-0.022 0-0.044-0-0.066-0.001l0.003 0z"></path>
</symbol>
<symbol id="mci-pionts" viewBox="0 0 32 32">
<title>pionts</title>
<path d="M15.999 32c-8.837-0.006-15.999-7.171-15.999-16.009 0-4.413 1.786-8.41 4.675-11.306l-0 0c2.897-2.9 6.902-4.694 11.325-4.694 8.841 0 16.008 7.167 16.008 16.008 0 4.418-1.789 8.417-4.683 11.314l0-0c-2.879 2.895-6.866 4.687-11.271 4.687-0.019 0-0.038-0-0.057-0h0.003zM15.999 3.201c-0.023-0-0.051-0-0.078-0-7.069 0-12.8 5.731-12.8 12.8s5.731 12.8 12.8 12.8c7.069 0 12.8-5.731 12.8-12.8v-0c-0.039-7.027-5.702-12.718-12.714-12.802l-0.008-0zM23.131 18.401c-0.003 0-0.006 0-0.009 0-1.274 0-2.306-1.033-2.306-2.306 0-0.034 0.001-0.067 0.002-0.101l-0 0.005c-0.001-0.028-0.002-0.061-0.002-0.094 0-1.273 1.032-2.305 2.305-2.305 0.004 0 0.007 0 0.011 0h-0.001c0.006-0 0.014-0 0.021-0 1.343 0 2.437 1.064 2.485 2.395l0 0.004c-0.049 1.336-1.143 2.401-2.487 2.401-0.007 0-0.014-0-0.020-0h0.001zM15.999 18.401c-0.004 0-0.008 0-0.013 0-1.344 0-2.439-1.066-2.487-2.398l-0-0.004c0.049-1.335 1.143-2.399 2.485-2.399 0.005 0 0.010 0 0.015 0h-0.001c0.003 0 0.007-0 0.010-0 1.273 0 2.305 1.032 2.305 2.305 0 0.033-0.001 0.066-0.002 0.099l0-0.005c0.001 0.028 0.002 0.061 0.002 0.094 0 1.274-1.033 2.306-2.306 2.306-0.003 0-0.006 0-0.009-0h0zM8.68 18.401c-0.004 0-0.010 0-0.015 0-1.274 0-2.306-1.033-2.306-2.306 0-0.034 0.001-0.067 0.002-0.101l-0 0.005c-0.001-0.028-0.002-0.061-0.002-0.094 0-1.273 1.032-2.305 2.305-2.305 0.004 0 0.007 0 0.011 0h-0.001c0.006-0 0.014-0 0.021-0 1.343 0 2.437 1.064 2.485 2.395l0 0.004c-0.049 1.336-1.143 2.401-2.487 2.401-0.007 0-0.014-0-0.021-0h0.001z"></path>
</symbol>
<symbol id="mci-user" viewBox="0 0 25 32">
<title>user</title>
<path d="M23.077 32c-0.855-0.018-1.541-0.715-1.541-1.573 0-0.010 0-0.019 0-0.029l-0 0.001c-0.014-3.782-2.642-6.947-6.171-7.782l-0.055-0.011c-0.868-0.132-1.87-0.207-2.89-0.207-0.040 0-0.080 0-0.12 0l0.006-0c-0.035-0-0.076-0-0.118-0-1.011 0-2.004 0.076-2.974 0.223l0.109-0.014c-3.59 0.84-6.227 4.005-6.247 7.788v0.002c0 0.008 0 0.018 0 0.027 0 0.857-0.685 1.553-1.537 1.573l-0.002 0c-0.854-0.018-1.539-0.714-1.539-1.57 0-0.011 0-0.021 0-0.031l-0 0.002c0.074-4.326 2.494-8.070 6.039-10.023l0.060-0.030c-2.781-2.093-4.561-5.387-4.561-9.097 0-0.018 0-0.037 0-0.055v0.003c-0.001-0.059-0.002-0.128-0.002-0.197 0-5.995 4.795-10.871 10.759-11l0.012-0c5.976 0.13 10.771 5.005 10.771 11.001 0 0.069-0.001 0.138-0.002 0.207l0-0.010c0 0.015 0 0.033 0 0.051 0 3.706-1.771 6.999-4.513 9.078l-0.028 0.021c3.596 1.989 6.007 5.731 6.080 10.043l0 0.010c0 0.009 0 0.019 0 0.030 0 0.856-0.685 1.552-1.537 1.57l-0.002 0zM12.308 3.2c-4.27 0.092-7.696 3.575-7.696 7.858 0 0.050 0 0.1 0.001 0.149l-0-0.007c-0.001 0.042-0.001 0.092-0.001 0.142 0 4.283 3.426 7.766 7.688 7.858l0.009 0c4.269-0.093 7.694-3.576 7.694-7.858 0-0.050-0-0.1-0.001-0.149l0 0.007c0.001-0.042 0.001-0.092 0.001-0.142 0-4.282-3.425-7.765-7.685-7.858l-0.009-0z"></path>
</symbol>
</defs>
</svg>
