<!-- Generated by IcoMoon.io -->
<svg version="1.1" xmlns="http://www.w3.org/2000/svg" width="4070" height="1024" viewBox="0 0 4070 1024">
<title></title>
<g id="icomoon-ignore">
</g>
<path fill="#fff" d="M4067.43 2.227c-159.995 28.903-322.396 42.37-484.966 40.218-162.525 1.824-324.861-11.641-484.864-40.218 28.689 159.585 42.198 321.528 40.346 483.661 1.831 162.191-11.677 324.192-40.346 483.84 160.028-28.516 322.376-41.981 484.915-40.218 162.542-1.842 324.897 11.624 484.915 40.218-28.566-159.659-42.022-321.656-40.192-483.84-1.736-162.122 11.72-324.049 40.192-483.661v0zM3744.563 245.146v2.202h2.202c8.384 1.533 13.982 9.515 12.57 17.92v1.254h1.101c6.094 3.547 10.798 9.064 13.338 15.642l0.794 0.307c0.577 2.4 0.182 4.931-1.101 7.040-3.036 0.157-6.078 0.157-9.114 0-5.54 0.767-11.163-0.636-15.693-3.917-9.26-2.979-17.888-7.649-25.446-13.773l-1.101-0.947h-1.254c-2.876 1.444-6.049 2.198-9.267 2.202-6.445-0.339-12.564-2.941-17.28-7.347l-1.562-1.254-1.408 1.715c-1.051 0.996-2.274 1.794-3.61 2.355h-4.096c-5.687-0.459-11.127-2.519-15.693-5.939l-2.048-1.408-0.947 2.355c-4.030 5.62-10.935 8.42-17.741 7.194-2.404 0.156-4.815 0.156-7.219 0-12.358-4.694-24.994-8.618-37.837-11.75l-5.504-0.947c5.121-2.128 10.36-3.957 15.693-5.478 8.96-2.56 16.64-4.224 16.64-4.224 8.32-3.41 14.389-10.747 16.179-19.558 4.593 0.141 9.142-0.937 13.184-3.123h0.947c5.729-2.245 11.777-3.567 17.92-3.917 2.516-0.318 5.043 0.488 6.912 2.202 1.066 1.31 1.472 3.037 1.101 4.685v3.456l3.149-1.254c7.059-2.971 14.523-4.869 22.144-5.632 2.003-0.338 4.047 0.299 5.504 1.715 0.628 1.392 0.628 2.986 0 4.378l-0.794 3.277h3.149c2.978-0.314 5.982-0.314 8.96 0 5.644-0.897 11.395 0.763 15.693 4.531 1.397 1.679 1.961 3.899 1.536 6.042v0zM3700.915 339.866c-10.415-1.035-19.168-8.27-22.144-18.304l-1.254-2.202-1.894 1.408c-1.044 0.158-2.105 0.158-3.149 0-3.47-0.261-6.693-1.891-8.96-4.531l-1.715-1.715c-2.478-2.819-4.689-5.861-6.605-9.088l-1.562-2.816-0.947 1.562v1.254c-1.615 1.824-3.999 2.774-6.426 2.56-6.369-0.652-12.392-3.213-17.28-7.347-9.794-11.093-20.286-21.551-31.411-31.309l-5.965-2.816-3.763-2.56h2.816c15.566 2.837 30.819 7.184 45.542 12.979 2.669 0.157 5.344 0.157 8.013 0 7.587 0.806 15.105-2.045 20.25-7.68 4.625 3.264 10.048 5.21 15.693 5.632h1.254c0.157 0.984 0.157 1.986 0 2.97l-0.947 2.97h2.816c9.074-0.774 18.089 2.039 25.114 7.834 1.098 2.218 1.098 4.822 0 7.040l-1.101 2.355h2.355c8.176 2.481 15.298 7.604 20.25 14.566 1.516 3.008 1.801 6.488 0.794 9.702v1.715l0.64 0.307c7.993 6.723 10.99 17.692 7.526 27.546v0.947l-0.154 0.614c0 0 13.978 20.966 6.272 31.309-8.746-2.519-16.312-8.062-21.35-15.642-8.123-8.226-14.905-17.677-20.096-28.006v-1.408l-2.611 0.154zM3680.819 371.174c3.22 6.132 1.567 13.691-3.917 17.92l-1.101 0.794v1.408c1.17 5.785 0.572 11.788-1.715 17.229-1.114 1.433-2.657 2.474-4.403 2.97-5.693-5.037-9.697-11.705-11.469-19.098v-1.050c-3.425-8.119-5.342-16.794-5.658-25.6v-1.408h-1.101c-7.711-4.179-12.169-12.57-11.315-21.299v-0.614h-1.894c-0.461 0-8.96-0.461-10.982-17.92v-2.56h-2.202c0 0-7.373 1.715-17.28-13.926-4.353-12.569-9.597-24.811-15.693-36.634 12.371 10.476 23.972 21.829 34.714 33.971 5.63 4.539 12.445 7.365 19.635 8.141 2.776 0.041 5.484-0.862 7.68-2.56 1.591 2.535 3.38 4.94 5.35 7.194h-0.947l-2.816 2.022 2.995 1.869c7.485 3.469 13.576 9.37 17.28 16.742-0.252 1.223-1.157 2.207-2.355 2.56l-2.816 1.408 2.355 2.202c5.665 4.715 9.542 11.23 10.982 18.458v0.154c-0.225 1.788-1.145 3.416-2.56 4.531l-1.715 1.101 0.947 1.997zM3488.154 388.557c-5.845-4.249-7.478-12.259-3.763-18.458l1.101-1.869-1.562-1.101c-1.572-1.011-2.605-2.675-2.816-4.531 1.441-7.228 5.317-13.743 10.982-18.458l2.355-2.202-2.995-1.408c-1.166-0.402-2.052-1.364-2.355-2.56 3.764-7.381 9.906-13.279 17.434-16.742l2.816-1.869-2.56-2.022h-0.794c1.562-2.022 3.302-4.378 5.12-7.194 2.196 1.698 4.904 2.601 7.68 2.56 7.067-0.756 13.768-3.528 19.302-7.987 10.835-12.105 22.485-23.455 34.867-33.971-6.189 11.778-11.436 24.028-15.693 36.634-9.882 16.282-17.434 13.926-17.434 13.926l-2.202-0.794v2.56c-1.894 17.92-10.829 17.92-10.829 17.92h-2.048v2.56c0.778 8.714-3.659 17.066-11.315 21.299h-1.101v1.562c-0.537 8.792-2.5 17.438-5.811 25.6-1.707 7.418-5.723 14.105-11.469 19.098-1.749-0.399-3.274-1.464-4.25-2.97-2.367-5.42-2.967-11.448-1.715-17.229v-1.408l-0.947-0.947zM3433.037 323.43l1.254-0.947v-1.715c-1.254-3.113-1.254-6.59 0-9.702 4.954-7.060 12.185-12.203 20.48-14.566h2.202l-1.101-2.355c-1.098-2.218-1.098-4.822 0-7.040 7.090-5.803 16.164-8.614 25.293-7.834h2.816l-0.794-2.97c-0.156-0.984-0.156-1.986 0-2.97h1.101c5.66-0.349 11.103-2.302 15.693-5.632 5.144 5.635 12.662 8.486 20.25 7.68 2.669 0.157 5.344 0.157 8.013 0 14.723-5.795 29.976-10.142 45.542-12.979l0.461-0.794h2.995l-5.12 3.123-5.811 4.531c-11.163 9.718-21.657 20.178-31.411 31.309-4.888 4.134-10.911 6.695-17.28 7.347-2.366 0.116-4.663-0.821-6.272-2.56l-0.794-1.254-0.947-1.715-1.715 2.97c-1.908 3.188-4.056 6.226-6.426 9.088l-1.715 1.715c-2.267 2.64-5.49 4.27-8.96 4.531-1.048-0.020-2.075-0.293-2.995-0.794l-2.048-1.562-1.101 2.355c-2.847 9.769-11.129 16.981-21.197 18.458h-2.56v1.408c-5.34 10.239-12.106 19.669-20.096 28.006-5.102 7.583-12.718 13.123-21.504 15.642-7.859-10.24 6.272-31.309 6.272-31.309v-1.869c-3.505-9.853-0.537-20.846 7.45-27.597h0.026zM3519.078 583.731h54.656l-11.622-50.406 8.96-8.934-11.622-45.542 9.267-4.531-12.237-49.92 10.982-7.834-9.574-42.573 10.829-5.939-6.912-37.888 9.114-5.939-1.408-40.96c2.513-7.796 7.002-14.807 13.030-20.352 6.164 5.482 10.677 12.574 13.030 20.48l-1.408 40.96 8.96 5.786-6.912 37.888 10.982 5.939-9.728 42.573 10.982 7.834-11.93 49.92 9.267 4.531-11.776 45.542 8.96 8.934-10.061 50.253h53.76l1.101 0.947c3.51 1.173 5.504 4.871 4.557 8.448-9.282 12.1-20.409 22.666-32.973 31.309-1.691-4.566-2.951-9.28-3.763-14.080-1.101-1.408-12.8 11.264-18.381 14.234-4.19-4.503-8.939-8.452-14.131-11.75-8.32 5.325-17.434 11.75-17.434 11.75-5.35-2.816-13.67-15.36-14.592-13.926-0.972 4.746-2.334 9.404-4.070 13.926-12.527-8.884-23.555-19.713-32.666-32.077-2.458-5.478 4.762-8.602 4.762-8.602v0zM3689.779 169.549c2.429-0.1 4.623 1.443 5.35 3.763l0.794 2.022 1.715-0.947c1.596-0.767 3.35-1.144 5.12-1.101 5.031 0.188 9.445 3.408 11.162 8.141v1.254h1.254c5.287-0.386 10.518 1.294 14.592 4.685 1.263 1.401 1.941 3.234 1.894 5.12-5.033 4.568-11.134 7.799-17.741 9.395h-2.56c-5.618 1.628-11.431 2.489-17.28 2.56h-8.32v1.254c-3.597 5.864-10.073 9.337-16.947 9.088h-6.118v3.917c-0.473 1.798-1.45 3.424-2.816 4.685l-1.715 1.408c-1.483 0.861-3.065 1.54-4.71 2.022h-1.869c-2.301 0.157-4.611 0.157-6.912 0h-1.715v2.022c-1.889 7.741-7.945 13.778-15.693 15.642l0.461-1.408c-9.853 2.141-19.558 4.912-29.056 8.294-3.712 1.253-7.331 2.767-10.829 4.531 1.408-1.715 2.995-3.61 4.71-5.325 6.256-6.339 12.863-12.321 19.789-17.92 5.872-5.492 8.733-13.481 7.68-21.453 6.604-2.455 11.113-8.605 11.469-15.642 3.779-1.5 7.123-3.919 9.728-7.040 1.722 0.015 3.182 1.27 3.456 2.97l3.61 1.715 2.202-2.816c4.081-6.869 10.164-12.327 17.434-15.642 0.461 0 1.562 0 2.56 2.97v3.277l2.56-2.202c4.555-4.641 10.364-7.852 16.717-9.242h0.026zM3604.992 182.528l2.56 2.355 0.794-3.456c0.48-7.198 3.544-13.98 8.627-19.098 0.809 0.166 1.502 0.682 1.894 1.408l2.202 2.56 1.101-3.123c1.976-6.087 6.336-11.112 12.083-13.926 1.159-0.003 2.258 0.513 2.995 1.408l1.562 1.408 1.254-1.715c1.735-2.337 4.462-3.729 7.373-3.763 2.617 0.058 5.126 1.058 7.066 2.816l1.101 0.794h1.101c3.035-1.877 6.497-2.952 10.061-3.123 2.554-0.206 4.976 1.162 6.118 3.456-2.254 5.819-6.262 10.794-11.469 14.234-5.217 4.676-11.224 8.386-17.741 10.957h-1.254v3.277c-0.328 2.594-1.295 5.066-2.816 7.194-2.533 3.522-6.118 6.148-10.24 7.501h-1.254v2.56c-0.192 2.751-1.428 5.325-3.456 7.194-2.179 2.076-4.666 3.803-7.373 5.12l-1.715 0.794 1.101 2.022c1.6 6.8-0.838 13.915-6.272 18.304-5.601 3.925-10.852 8.327-15.693 13.158l-0.461 0.461-4.71 4.685-4.25 4.531v-2.56c5.12-17.382 13.978-48.845 17.587-68.864 0.857 0.207 1.606 0.728 2.099 1.459l0.026-0.026zM3567.923 132.275c0.297-0.494 0.832-0.795 1.408-0.794h1.562l2.355 1.408v-2.97c1.244-7.928 4.369-15.442 9.114-21.914 4.791 6.462 7.968 13.975 9.267 21.914v2.97l2.355-1.408h1.408c0.617 0.002 1.196 0.296 1.562 0.794 3.588 10.030 4.471 20.829 2.56 31.309v2.56h1.562c0.185 3.89-0.186 7.786-1.101 11.571-0.156 1.087-0.156 2.19 0 3.277l-1.101-0.154c-0.674 1.758-1.096 3.602-1.254 5.478-3.149 14.413-8.166 34.278-13.978 54.323v1.254c-0.928 1.859-1.509 3.872-1.715 5.939l-1.894-5.786v-1.254c-5.658-20.045-10.829-39.91-13.824-54.323l-1.254-5.632v-3.277c-0.909-3.786-1.279-7.682-1.101-11.571h1.408v-2.56c-2.008-10.421-1.096-21.195 2.637-31.13l0.026-0.026zM3498.189 146.688c3.55 0.25 6.993 1.319 10.061 3.123h1.101l1.101-0.794c1.88-1.756 4.34-2.758 6.912-2.816 2.932 0.118 5.673 1.488 7.526 3.763l1.254 1.715 1.562-1.408c0.729-0.783 1.746-1.236 2.816-1.254 5.708 2.823 10.016 7.853 11.93 13.926l1.254 3.123 2.048-2.56c0.369-0.813 1.157-1.355 2.048-1.408 5.014 5.15 8.019 11.924 8.474 19.098v3.456l2.56-2.355c0.553-0.676 1.338-1.123 2.202-1.254l0.947-0.614c3.61 20.045 12.416 51.507 17.434 68.71l0.794 2.56c-1.274-1.583-2.632-3.096-4.070-4.531l-4.864-4.685c-7.526-6.579-14.438-12.211-15.693-13.158-5.389-4.425-7.866-11.482-6.426-18.304l1.254-1.869-3.149-2.816c-2.706-1.317-5.193-3.044-7.373-5.12-1.986-1.883-3.169-4.46-3.302-7.194v-2.56h-1.254c-4.162-1.273-7.771-3.916-10.24-7.501-1.374-2.18-2.248-4.636-2.56-7.194v-1.485h-1.101c-6.602-2.507-12.68-6.222-17.92-10.957-5.165-3.447-9.122-8.424-11.315-14.234 1.093-2.269 3.483-3.618 5.99-3.379v-0.026zM3436.006 189.568c4.074-3.391 9.305-5.071 14.592-4.685h2.202v-1.254c1.731-4.788 6.225-8.022 11.315-8.141 1.686-0.027 3.354 0.35 4.864 1.101l1.894 0.947 0.947-2.022c0.628-2.29 2.747-3.848 5.12-3.763 6.384 1.396 12.252 4.543 16.947 9.088l2.202 2.202 1.101-3.277c0.64-3.123 2.355-3.123 2.355-3.123 7.27 3.315 13.353 8.773 17.434 15.642l2.048 2.816 1.408-3.277c0.274-1.7 1.734-2.954 3.456-2.97 2.563 3.165 5.92 5.594 9.728 7.040 0.507 6.982 4.963 13.058 11.469 15.642-0.769 7.939 2.047 15.806 7.68 21.453 6.926 5.599 13.533 11.581 19.789 17.92 1.732 1.624 3.309 3.407 4.71 5.325l1.715 1.408c-3.511-1.736-7.128-3.25-10.829-4.531-9.498-3.383-19.203-6.153-29.056-8.294-7.693-1.961-13.707-7.956-15.693-15.642v-2.022h-2.56c-2.301 0.157-4.611 0.157-6.912 0h-1.894c-1.669-0.415-3.26-1.098-4.71-2.022l-1.894-1.408c-1.367-1.26-2.344-2.886-2.816-4.685v-2.202h-5.965c-6.858 0.18-13.302-3.276-16.947-9.088v-1.254h-8.166c-5.9-0.060-11.765-0.921-17.434-2.56h-2.202c-6.607-1.596-12.707-4.827-17.741-9.395-0.044-1.823 0.616-3.592 1.843-4.941v-0.026zM3390.464 283.827c2.531-6.536 7.171-12.040 13.184-15.642h1.254v-1.408c-1.388-8.477 4.331-16.484 12.8-17.92h2.048v-2.202c-0.439-2.091 0.077-4.268 1.408-5.939 4.334-3.699 10.053-5.351 15.693-4.531 2.978-0.314 5.982-0.314 8.96 0h3.149l-0.794-3.277c-0.471-1.421-0.471-2.956 0-4.378 1.53-1.397 3.609-2.027 5.658-1.715 7.581 0.707 15.003 2.608 21.99 5.632l3.149 1.254v-3.456c-0.33-1.625 0.012-3.315 0.947-4.685 1.988-1.719 4.61-2.519 7.219-2.202 6.182 0.369 12.269 1.69 18.048 3.917h0.794c4.042 2.186 8.591 3.264 13.184 3.123 2.599 8.478 9.159 15.162 17.587 17.92 0 0 7.526 1.715 16.486 4.224 5.664 1.448 11.224 3.278 16.64 5.478l-5.35 0.947c-12.893 3.133-25.58 7.057-37.99 11.75-2.455 0.156-4.918 0.156-7.373 0-6.861 1.261-13.836-1.538-17.92-7.194l-0.947-2.56-2.048 1.562c-4.53 3.485-9.99 5.552-15.693 5.939h-3.917c-1.422-0.479-2.711-1.285-3.763-2.355l-1.408-1.715-1.408 1.254c-4.716 4.407-10.835 7.008-17.28 7.347-3.218-0.003-6.391-0.757-9.267-2.202h-1.28l-1.101 0.947c-7.613 6.128-16.291 10.797-25.6 13.773l-1.101 1.408c-4.53 3.281-10.152 4.684-15.693 3.917-3.14 0.154-6.281 0.154-9.421 0-1.197-2.135-1.5-4.656-0.845-7.014zM3717.248 660.147c-37.069 25.6-72.704 53.222-107.264 82.176 18.534 17.050 36.275 34.586 53.402 52.915l0.64-0.461 1.715-1.562c0-0.154 0.154-0.154 0.154-0.307 0.519-0.438 1.191-0.652 1.868-0.595s1.303 0.382 1.741 0.902c0.475 0.713 0.475 1.642 0 2.355 1.196-0.919 2.088-2.177 2.56-3.61-1.633-4.57-0.255-9.673 3.456-12.8 0.495-0.599 1.073-1.125 1.715-1.562 4.758-3.337 11.319-2.185 14.656 2.573s2.185 11.319-2.573 14.656c-2.871 2.537-6.767 3.58-10.522 2.816-1.414 2.302-1.76 5.104-0.947 7.68 9.86 12.851 25.252 20.238 41.446 19.891 12.879-0.18 25.062-5.875 33.459-15.642 0.691-0.824 1.426-1.61 2.202-2.355 7.517-6.146 18.58-5.095 24.806 2.355l0.64-1.715c20.096 28.493-20.736 55.245-49.459 55.245-27.959-0.411-54.745-11.301-75.059-30.515-2.816-3.61-5.12-4.864-7.859-3.61-1.7 1.344-2.781 3.322-2.995 5.478 0.325 3.868-1.193 7.663-4.096 10.24-4.381 4.217-11.312 4.217-15.693 0-0.154-0.154-0.307-0.461-0.461-0.614-1.688-2.302-2.389-5.183-1.947-8.003s1.99-5.348 4.302-7.024c2.284-2.247 5.434-3.387 8.627-3.123-0.993-0.998-0.993-2.611 0-3.61l3.302-3.456c-18.381-18.15-37.376-35.533-56.678-52.762-19.328 17.229-38.4 34.586-56.678 52.762l3.917 3.917c0.488 0.442 0.767 1.069 0.767 1.728s-0.279 1.286-0.767 1.728v0.154c3.229-0.19 6.397 0.937 8.781 3.123 3.046 2.158 4.708 5.778 4.362 9.495s-2.65 6.966-6.042 8.525c-3.392 1.558-7.358 1.189-10.403-0.97-0.637-0.384-1.215-0.858-1.715-1.408-2.954-2.539-4.475-6.366-4.070-10.24-0.272-2.175-1.407-4.149-3.149-5.478-2.56-1.254-4.864 0-7.859 3.61-20.199 19.298-46.972 30.205-74.906 30.515-28.902 0-69.555-26.778-49.459-55.245l-0.154 1.254c3.012-3.573 7.325-5.795 11.982-6.175s9.273 1.115 12.824 4.153c0.758 0.593 1.446 1.272 2.048 2.022 8.395 9.856 20.666 15.566 33.613 15.642 16.362 0.826 32.089-6.425 42.086-19.405 0.894-2.568 0.544-5.406-0.947-7.68-3.755 0.764-7.65-0.279-10.522-2.816-3.078-2.158-4.77-5.795-4.44-9.539s2.634-7.028 6.042-8.614c3.408-1.586 7.403-1.233 10.481 0.925 0.643 0.437 1.22 0.963 1.715 1.562 3.711 3.127 5.089 8.23 3.456 12.8 0.472 1.433 1.364 2.69 2.56 3.61-0.316-0.753-0.316-1.602 0-2.355 0.438-0.52 1.064-0.844 1.741-0.902s1.349 0.156 1.868 0.595c0 0.154 0.154 0.154 0.154 0.307l1.715 1.562c17.28-18.304 35.021-35.84 53.555-52.762-34.543-29.116-70.383-56.559-107.52-82.33-119.347-79.206-209.331-71.526-209.331-71.526 67.533-25.83 152.32-0.614 191.104 21.12 54.269 31.305 105.525 67.564 153.114 108.314 47.588-40.749 98.845-77.008 153.114-108.314 38.4-21.76 123.418-46.95 190.798-21.12 0.332-0.077-89.473-7.731-208.974 71.475v0.026z"></path>
<path fill="#fff" d="M3090.995 984.090l-9.267 1.869-38.17 38.042c162.558-29.949 327.646-44.001 492.928-41.958 165.293-2.358 330.412 11.697 492.928 41.958l40.96-40.96c-160.906-29.118-324.222-42.833-487.731-40.96-164.796-1.703-329.379 12.295-491.52 41.805z"></path>
<path fill="#fff" d="M3081.472 985.958l2.048-9.242c29.912-161.709 43.956-325.954 41.933-490.394 1.646-163.068-12.128-325.925-41.139-486.4l-40.832 40.96c30.049 162.072 44.145 326.699 42.086 491.52 2.4 164.88-11.665 329.588-41.984 491.674l37.888-38.118z"></path>
<path fill="#fff" d="M133.12 469.427c-1.144 22.057-9.095 43.217-22.758 60.57-8.878 16.206-25.142 27.026-43.52 28.954-13.101-1.376-25.913-4.751-37.99-10.010-19.234-7.305-28.851-13.303-28.851-17.997 0.182-0.745 0.801-1.304 1.562-1.408 5.727 1.788 11.336 3.934 16.794 6.426 7.857 3.651 16.317 5.829 24.96 6.426 19.461-2.918 37.172-12.885 49.766-28.006 15.685-12.199 26.3-29.771 29.798-49.331 0-9.916-11.827-23.373-35.482-40.371 1.365-5.837 3.721-16.529 7.066-32.077 10.366 7.466 19.35 16.684 26.547 27.238 8.593 15.072 12.789 32.251 12.109 49.587v0z"></path>
<path fill="#fff" d="M232.858 482.739h-51.328c-3.567-63.966-8.073-124.749-13.517-182.349l17.587-23.040 8.474 100.326c1.394 24.092 4.224 48.079 8.474 71.834l3.149 2.56c3.942 3.267 9.043 4.792 14.131 4.224h13.67v26.598l-0.64-0.154z"></path>
<path fill="#fff" d="M275.584 482.714h-51.968v-26.598h51.968z"></path>
<path fill="#fff" d="M432.154 482.739h-22.298l-8.166 17.382-67.046-36.634c-4.462 1.429-7.894 5.025-9.114 9.549-1.524 4.968-5.709 8.659-10.829 9.549h-45.235v-26.598h48.051c6.506-0.982 11.709-5.919 13.030-12.365 2.281-7.114 5.284-13.976 8.96-20.48 7.507-6.646 15.663-12.521 24.346-17.536 8.296-5.561 17.855-8.95 27.802-9.856 1.836-0.381 3.743 0.151 5.116 1.427s2.043 3.14 1.796 4.998c0.298 3.697 0.298 7.413 0 11.11v0c7.014 26.914 15.966 41.318 26.854 43.213h7.373v26.598l-0.64-0.358zM394.163 455.654c-1.707-7.834-3.123-13.807-4.25-17.92-0.232-6.839-4.875-12.737-11.469-14.566-11.806-0.753-23.097 4.937-29.517 14.874l17.92 11.264c6.021 4.008 12.73 6.871 19.789 8.448l7.526-2.099z"></path>
<path fill="#fff" d="M476.749 482.714h-51.968v-26.598h51.968z"></path>
<path fill="#fff" d="M571.904 482.739h-15.693c-3.838-0.115-7.555-1.371-10.675-3.61-1.993-1.884-3.548-4.183-4.557-6.733-0.74-2.101-1.918-4.021-3.456-5.632-2.729 2.055-4.845 4.817-6.118 7.987-1.278 3.449-3.798 6.297-7.066 7.987h-53.76v-26.624h69.555v-35.072c5.973-7.936 14.037-17.587 24.192-28.954 0.25 1.026 0.25 2.097 0 3.123-0.595 16.836-2.59 33.594-5.965 50.099-0.563 2.58-0.931 5.199-1.101 7.834 0 2.074 1.766 3.123 5.35 3.123h8.166v26.726l1.126-0.256zM560.589 342.81l-12.57 20.813-29.363-17.536-9.267 15.642-31.411-18.15 12.8-21.606 28.902 18.637 10.061-15.642 30.848 17.843zM526.822 297.114l-13.030 21.299-28.902-18.304 12.8-20.659 29.133 17.664z"></path>
<path fill="#fff" d="M666.112 482.714h-15.693c-3.838-0.115-7.555-1.371-10.675-3.61-1.993-1.884-3.548-4.183-4.557-6.733-0.74-2.101-1.918-4.021-3.456-5.632-2.729 2.055-4.845 4.817-6.118 7.987-1.278 3.449-3.798 6.297-7.066 7.987h-53.76v-26.598h69.734v-35.072c5.973-7.936 14.037-17.587 24.192-28.954 0.25 1.026 0.25 2.097 0 3.123-0.595 16.836-2.59 33.594-5.965 50.099-0.562 2.58-0.93 5.199-1.101 7.834 0 2.074 1.766 3.123 5.35 3.123h8.166v26.598l0.947-0.154zM655.872 340.582l-12.8 20.966-29.824-17.92-9.267 15.642-30.72-17.92 12.8-21.914 28.902 18.15 9.882-15.642 31.027 18.637z"></path>
<path fill="#fff" d="M884.403 442.035c-0.034 9.417-1.572 18.768-4.557 27.699-1.137 4.642-3.106 9.039-5.811 12.979h-45.056c-2.592-1.001-4.645-3.044-5.658-5.632l-2.202-4.378c-3.585 3.542-7.363 6.883-11.315 10.010h-80.384c-1.179-3.611-3.049-6.958-5.504-9.856 3.14 0 1.673 1.707-4.403 5.12-3.876 2.555-8.231 4.297-12.8 5.12h-47.027v-26.598h57.626c5.181-0.235 9.191-4.624 8.96-9.805v-16l24.038-25.6c-0.831 17.56-4.766 34.834-11.622 51.021h76.006c1.861-6.186 2.342-12.705 1.408-19.098 0-6.144 8.431-15.795 25.293-28.954-2.202 7.936-5.76 22.34-10.675 43.213-1.058 3.413 8.098 5.12 27.469 5.12h11.315c-0.734-5.205-2.62-13.739-5.658-25.6 0.821-4.981 3.666-9.401 7.859-12.211 4.762-4.575 9.121-9.551 13.030-14.874v38.656l-0.333-0.333z"></path>
<path fill="#fff" d="M1073.306 304.051c-0.524 4.016-2.682 7.638-5.965 10.010l-11.469 14.566v13.466c-0.218 17.116-3.956 34.004-10.982 49.613-2.897 6.341-6.26 12.46-10.061 18.304-2.524 3.469-4.677 7.193-6.426 11.11 4.566 12.349 8.236 25.011 10.982 37.888 0.205 2.975 0.205 5.96 0 8.934 0.879 4.463-0.444 9.075-3.555 12.394s-7.628 4.937-12.138 4.349h-76.006l4.71-28.16c13.169-4.723 25.241-12.074 35.482-21.606 8.497-5.364 15.771-12.455 21.35-20.813-4.723-11.154-11.605-21.263-20.25-29.747-9.628-12.218-20.126-23.725-31.411-34.432l-4.25 14.566c-10.853-6.851-21.338-14.268-31.411-22.221-7.808-5.287-12.958-13.683-14.131-23.040 0-20.873 3.294-31.309 9.882-31.309 6.685 2.192 12.877 5.671 18.227 10.24 14.333 10.558 27.49 22.625 39.245 35.994 18.515 20.842 34.34 43.926 47.104 68.71 4.369-3.479 7.954-7.84 10.522-12.8 4.122-6.451 6.803-13.717 7.859-21.299 0.142-2.712 0.142-5.429 0-8.141-0.947-15.83-3.311-31.543-7.066-46.95-3.606-3.355-6.725-7.198-9.267-11.418-0.242-7.705 2.585-15.191 7.859-20.813 1.759-4.752 5.305-8.628 9.882-10.803 1.813 7.726 5.854 14.749 11.622 20.198 5.236 6.103 12.032 10.668 19.661 13.21v0zM1026.202 459.648c-0.536-11.19-3.313-22.159-8.166-32.256-7.513 9.032-16.746 16.48-27.162 21.914-5.898 3.721-11.982 7.138-18.227 10.24 4.392 2.918 9.811 3.847 14.925 2.56 10.24-0.205 23.168-1.058 38.784-2.56l-0.154 0.102z"></path>
<path fill="#fff" d="M1137.331 447.36c-1.635 15.822-5.883 31.263-12.57 45.696-3.977-46.848-9.574-103.561-16.794-170.138 2.786-16.758 9.633-32.578 19.942-46.080 1.058 1.707 2.944 30.302 5.658 85.786l3.763 84.736z"></path>
<path fill="#fff" d="M1279.334 445.645c0.175 24.164-5.194 48.046-15.693 69.811-5.398 11.082-12.673 21.147-21.504 29.747-7.775 9.334-19.263 14.774-31.411 14.874-12.519-1.277-24.949-3.312-37.222-6.093-20.105-4.386-30.157-8.243-30.157-11.571 0-1.766 1.254-2.56 3.763-2.56 5.903 0.345 11.749 1.341 17.434 2.97 5.841 1.67 11.853 2.666 17.92 2.97 3.98-0.114 7.912-0.91 11.622-2.355 18.364-6.943 35.097-17.602 49.152-31.309 14.606-11.441 23.774-28.459 25.293-46.95 0.080-5.296-0.663-10.573-2.202-15.642-3.369 9.681-9.623 18.097-17.92 24.115-5.853 2.442-12.272 3.204-18.534 2.202-7.385-0.809-13.723-5.622-16.486-12.518-3.146-6.657-4.755-13.936-4.71-21.299 1.459-13.054 6.274-25.508 13.978-36.147 10.479-16.282 19.43-24.422 26.854-24.422 5.342 0 11.52 6.827 18.534 20.48 7.334 13.403 11.214 28.421 11.29 43.699zM1259.853 442.368c-0.246-6.471-2.14-12.771-5.504-18.304-2.451-5.914-7.806-10.125-14.131-11.11-5.431 0.532-10.39 3.318-13.67 7.68-4.266 3.473-7.019 8.465-7.68 13.926 0.937 5.043 4.851 9.007 9.882 10.010 4.687 1.93 9.702 2.939 14.771 2.97 5.938 0.746 11.906-1.144 16.333-5.171v0z"></path>
<path fill="#fff" d="M1472.64 422.17c-1.514 11.004-5.083 21.624-10.522 31.309-4.229 5.878-9.252 11.141-14.925 15.642-9.796 7.521-21.483 12.181-33.766 13.466-7.564 1.040-15.269 0.014-22.298-2.97-7.27-2.577-12.075-9.517-11.93-17.229 4.158-20.909 14.122-40.223 28.749-55.731l24.499-31.309c4.719 5.053 9.982 9.569 15.693 13.466 8.158 5.956 13.389 9.873 15.693 11.75 5.855 5.635 9.054 13.484 8.806 21.606v0zM1463.526 330.445l-12.57 20.813-29.363-17.69-8.96 16.742-31.411-18.15 12.8-21.914 28.749 18.15 10.061-15.642 30.694 17.69zM1452.544 438.144c0-9.182-9.685-19.618-29.056-31.309-7.322 8.803-14.159 17.998-20.48 27.546-1.264 2.533-1.963 5.311-2.048 8.141-0.189 3.989 1.525 7.831 4.62 10.355s7.203 3.431 11.073 2.445c10.134-0.013 20.166-2.031 29.517-5.939 4.121-2.207 6.595-6.596 6.349-11.264l0.026 0.026z"></path>
<path fill="#fff" d="M1593.216 469.453c-1.146 22.056-9.096 43.216-22.758 60.57-8.796 16.201-25.007 27.030-43.341 28.954-13.101-1.376-25.913-4.751-37.99-10.010-19.166-7.339-28.749-13.363-28.749-18.074 0.182-0.745 0.801-1.304 1.562-1.408 5.727 1.788 11.336 3.934 16.794 6.426 7.857 3.651 16.317 5.829 24.96 6.426 19.461-2.918 37.172-12.885 49.766-28.006 15.588-11.866 25.996-29.29 29.056-48.64 0-9.916-11.827-23.381-35.482-40.397 1.365-5.837 3.721-16.529 7.066-32.077 10.366 7.466 19.35 16.684 26.547 27.238 8.653 14.851 13.005 31.816 12.57 48.998v0z"></path>
<path fill="#fff" d="M1693.107 482.739h-51.354c-3.567-63.863-8.073-124.646-13.517-182.349l17.587-23.040 8.474 100.326c1.445 24.095 4.326 48.082 8.627 71.834l3.149 2.56c3.942 3.267 9.043 4.792 14.131 4.224h13.67v26.598l-0.768-0.154z"></path>
<path fill="#fff" d="M1735.962 482.714h-51.968v-26.598h51.968z"></path>
<path fill="#fff" d="M1781.043 482.714h-52.122v-26.598h51.968v26.598z"></path>
<path fill="#fff" d="M1992.73 482.714h-72.243c-7.211-1.219-12.619-7.265-13.030-14.566-1.536-7.135-2.69-14.348-3.456-21.606-4.784 4.614-10.045 8.707-15.693 12.211-5.537 3.547-10.784 7.528-15.693 11.904-8.38 8.132-19.747 12.44-31.411 11.904h-65.485v-26.547h66.278c24.317-2.024 47.229-12.231 64.998-28.954l-46.797-8.934-14.592-3.123c-11.078 1.564-21.45 6.354-29.824 13.773 0.111-0.359 0.111-0.742 0-1.101 0.27-4.010 1.286-7.934 2.995-11.571 8.533-19.831 20.625-29.747 36.275-29.747 14.5 1.076 28.801 4.018 42.547 8.755 20.711 6.936 42.214 11.237 64 12.8h18.227c-2.202 6.144-6.025 15.326-11.469 27.546h-9.421c-14.76-0.744-29.503 1.765-43.187 7.347 0.029 5.114 2.552 9.892 6.758 12.8l2.995 1.562h67.84v26.598l-0.614-1.050zM1909.965 534.374l-12.8 21.453-29.056-18.15 12.8-20.48 29.056 17.178z"></path>
<path fill="#fff" d="M2088.038 482.714h-15.693c-3.838-0.115-7.555-1.371-10.675-3.61-1.993-1.884-3.549-4.182-4.557-6.733-0.74-2.101-1.918-4.021-3.456-5.632-2.729 2.055-4.845 4.817-6.118 7.987-1.278 3.449-3.798 6.297-7.066 7.987h-54.042v-26.598h69.709v-35.123c5.973-7.936 14.037-17.587 24.192-28.954 0.251 1.026 0.251 2.097 0 3.123-0.594 16.836-2.589 33.594-5.965 50.099-0.555 2.581-0.922 5.199-1.101 7.834 0 2.074 1.766 3.123 5.35 3.123h8.166v26.598l1.254-0.102zM2077.798 340.582l-12.8 20.966-29.824-17.92-9.267 15.642-30.003-16.896 12.8-21.914 28.902 18.15 9.882-15.642 30.31 17.613z"></path>
<path fill="#fff" d="M2172.698 314.138l-15.693 30.054-4.070-1.101 8.96 89.062c-0.36 10-1.568 19.951-3.61 29.747-2.628 13.892-5.248 20.83-7.859 20.813h-70.067v-26.598h65.792c1.27-1.885 1.671-4.225 1.101-6.426-2.731-40.046-7.972-79.881-15.693-119.27h-1.894c-3-1.49-4.959-4.487-5.12-7.834 0.062-2.27 0.715-4.485 1.894-6.426l13.824-24.115c2.628-4.693 4.565-6.519 5.811-5.478 1.333 0.107 2.359 1.222 2.355 2.56-0.185 1.536-0.663 3.022-1.408 4.378-0.739 1.358-1.217 2.843-1.408 4.378 0.189 1.881 1.4 3.505 3.149 4.224 8.414 4.267 16.393 8.277 23.936 12.032z"></path>
<path fill="#fff" d="M2240.026 447.36c-1.635 15.822-5.882 31.264-12.57 45.696-3.977-46.848-9.574-103.561-16.794-170.138 3.004-16.72 10.131-32.426 20.736-45.696 1.058 1.707 2.944 30.302 5.658 85.786l2.97 84.352z"></path>
<path fill="#fff" d="M2450.33 422.17c-1.514 11.004-5.083 21.624-10.522 31.309-4.23 5.877-9.252 11.141-14.925 15.642-9.796 7.521-21.483 12.181-33.766 13.466-7.564 1.040-15.269 0.014-22.298-2.97-7.27-2.577-12.075-9.517-11.93-17.229 4.158-20.909 14.122-40.223 28.749-55.731l24.499-31.309c4.719 5.053 9.982 9.568 15.693 13.466 8.158 5.956 13.389 9.873 15.693 11.75 5.855 5.635 9.054 13.484 8.806 21.606zM2441.216 330.445l-12.57 20.813-29.517-17.92-8.96 16.742-31.411-18.15 12.8-21.914 28.749 18.15 10.061-15.642 30.848 17.92zM2430.054 438.144c0-9.182-9.685-19.618-29.056-31.309-7.322 8.803-14.159 17.998-20.48 27.546-1.265 2.533-1.963 5.311-2.048 8.141-0.2 3.993 1.511 7.842 4.609 10.369s7.213 3.429 11.084 2.431c10.179-0.207 20.214-2.444 29.517-6.579 3.917-2.087 6.367-6.16 6.374-10.598z"></path>
<path fill="#fff" d="M2570.931 469.427c-1.144 22.057-9.095 43.217-22.758 60.57-8.878 16.206-25.142 27.026-43.52 28.954-13.101-1.376-25.913-4.751-37.99-10.010-19.166-7.305-28.749-13.278-28.749-17.92-0.187-1.024 0.487-2.007 1.51-2.202 0.228-0.047 0.463-0.047 0.691 0 5.724 1.795 11.333 3.941 16.794 6.426 7.857 3.651 16.317 5.829 24.96 6.426 19.461-2.918 37.172-12.885 49.766-28.006 15.563-11.963 26.091-29.312 29.517-48.64 0-9.916-11.827-23.373-35.482-40.371 1.365-5.837 3.721-16.529 7.066-32.077 10.366 7.466 19.35 16.684 26.547 27.238 8.438 15.126 12.473 32.312 11.648 49.613v0z"></path>
<path fill="#fff" d="M2639.693 447.36c-1.635 15.822-5.883 31.263-12.57 45.696-3.977-46.848-9.574-103.561-16.794-170.138 2.786-16.758 9.633-32.578 19.942-46.080 1.058 1.707 2.944 30.302 5.658 85.786l3.763 84.736z"></path>
<path fill="#fff" d="M2777.728 469.427c-1.146 22.056-9.096 43.216-22.758 60.57-8.964 16.128-25.181 26.917-43.52 28.954-13.101-1.376-25.913-4.751-37.99-10.010-19.166-7.305-28.749-13.278-28.749-17.92-0.187-1.024 0.487-2.007 1.51-2.202 0.228-0.048 0.463-0.048 0.691 0 5.724 1.795 11.333 3.941 16.794 6.426 7.857 3.651 16.317 5.829 24.96 6.426 19.461-2.918 37.172-12.885 49.766-28.006 15.588-11.866 25.996-29.29 29.056-48.64 0-9.916-11.827-23.373-35.482-40.371 1.365-5.837 3.721-16.529 7.066-32.077 10.305 7.673 19.179 17.102 26.214 27.853 8.605 14.865 12.913 31.828 12.442 48.998zM2744.269 336.845l-12.8 21.606-30.31-18.637 13.030-21.299 30.080 18.33z"></path>
<path fill="#fff" d="M2905.242 445.645c0.182 24.165-5.187 48.049-15.693 69.811-5.352 11.071-12.575 21.134-21.35 29.747-7.775 9.334-19.263 14.774-31.411 14.874-12.519-1.277-24.949-3.312-37.222-6.093-20.105-4.386-30.157-8.243-30.157-11.571 0-1.766 1.254-2.56 3.763-2.56 5.903 0.345 11.75 1.341 17.434 2.97 5.841 1.668 11.853 2.665 17.92 2.97 3.953 0.047 7.884-0.585 11.622-1.869 18.296-7.112 34.925-17.928 48.845-31.77 14.606-11.441 23.774-28.459 25.293-46.95 0.080-5.296-0.663-10.573-2.202-15.642-3.369 9.681-9.623 18.097-17.92 24.115-5.853 2.442-12.272 3.204-18.534 2.202-7.385-0.809-13.723-5.622-16.486-12.518-3.146-6.657-4.755-13.936-4.71-21.299 1.459-13.054 6.274-25.508 13.978-36.147 10.479-16.282 19.43-24.422 26.854-24.422 5.342 0 11.52 6.827 18.534 20.48 7.376 13.384 11.309 28.392 11.443 43.674v0zM2885.76 442.368c-0.246-6.471-2.14-12.771-5.504-18.304-2.451-5.914-7.806-10.125-14.131-11.11-5.431 0.532-10.39 3.318-13.67 7.68-4.266 3.473-7.019 8.465-7.68 13.926 0.937 5.043 4.851 9.007 9.882 10.010 4.687 1.93 9.702 2.938 14.771 2.97 5.938 0.746 11.906-1.144 16.333-5.171v0z"></path>
<path fill="#fff" d="M24.192 618.138l35.84 93.926 36.429-93.926h24.038v125.21h-20.941v-86.477l-33.126 86.4h-13.824l-31.411-86.4v86.554h-21.197v-125.21z"></path>
<path fill="#fff" d="M157.824 618.138v17.92h-20.736v-17.92h20.736zM157.824 652.877v90.47h-20.736v-90.47h20.736z"></path>
<path fill="#fff" d="M172.416 652.851h20.992v7.347c3.696-3.13 7.893-5.614 12.416-7.347 4.573-1.441 9.337-2.184 14.131-2.202 4.34-0.087 8.665 0.545 12.8 1.869 3.538 1.14 6.799 3.006 9.574 5.478 2.61 2.382 4.648 5.322 5.965 8.602 1.39 3.645 2.084 7.517 2.048 11.418v64.333h-20.096v-62.669c0.326-4.033-0.85-8.045-3.302-11.264-2.36-2.373-5.618-3.629-8.96-3.456-3.299-0.013-6.563 0.677-9.574 2.022-2.921 1.283-5.585 3.087-7.859 5.325-2.175 2.147-3.913 4.694-5.12 7.501-1.243 2.752-1.889 5.736-1.894 8.755v53.99h-21.12v-89.702z"></path>
<path fill="#fff" d="M287.386 618.138v17.92h-20.48v-17.92h20.48zM287.386 652.877v90.47h-20.48v-90.47h20.48z"></path>
<path fill="#fff" d="M323.328 713.446c-0.037 2.777 0.44 5.537 1.408 8.141 0.754 2.049 1.932 3.915 3.456 5.478 1.443 1.387 3.199 2.406 5.12 2.97 2.079 0.649 4.247 0.968 6.426 0.947 2.036 0.172 4.083 0.172 6.118 0 2.023-0.313 3.985-0.944 5.811-1.869 1.744-0.89 3.253-2.179 4.403-3.763 1.219-1.79 1.821-3.929 1.715-6.093 0.081-1.994-0.465-3.964-1.562-5.632-1.177-1.641-2.675-3.025-4.403-4.070-1.99-1.19-4.091-2.184-6.272-2.97l-7.526-2.56-11.699-4.352c-3.781-1.551-7.364-3.544-10.675-5.939-2.976-1.983-5.533-4.532-7.526-7.501-2.061-3.162-3.106-6.877-2.995-10.65-0.094-3.746 0.883-7.44 2.816-10.65 1.947-3.059 4.576-5.627 7.68-7.501 3.392-2.093 7.101-3.624 10.982-4.531 4.272-0.984 8.646-1.457 13.030-1.408 4.756-0.045 9.5 0.48 14.131 1.562 4.082 0.926 7.966 2.573 11.469 4.864 3.178 2.12 5.81 4.962 7.68 8.294 1.993 3.712 3.073 7.845 3.149 12.058h-20.736c-0.226-2.087-0.87-4.107-1.894-5.939-0.864-1.491-2.044-2.776-3.456-3.763-1.429-0.965-3.027-1.651-4.71-2.022-1.829-0.204-3.675-0.204-5.504 0-3.576-0.234-7.125 0.76-10.061 2.816-2.245 1.7-3.532 4.379-3.456 7.194-0.048 1.831 0.5 3.628 1.562 5.12 1.211 1.569 2.704 2.897 4.403 3.917 2.035 1.249 4.187 2.295 6.426 3.123l7.526 2.816 11.622 4.378c3.681 1.408 7.207 3.192 10.522 5.325 2.919 1.866 5.47 4.252 7.526 7.040 1.959 2.789 2.948 6.143 2.816 9.549 0.133 4.474-0.956 8.899-3.149 12.8-2.107 3.495-5.010 6.443-8.474 8.602-3.812 2.411-8.013 4.143-12.416 5.12-4.85 1.067-9.805 1.591-14.771 1.562-4.834 0.018-9.646-0.663-14.285-2.022-4.265-1.218-8.261-3.234-11.776-5.939-3.413-2.645-6.201-6.011-8.166-9.856-2.179-4.325-3.36-9.084-3.456-13.926h21.35l-0.179-0.717z"></path>
<path fill="#fff" d="M420.070 626.893v25.984h13.517v14.080h-13.517v55.245c-0.254 2.356 0.296 4.729 1.562 6.733 0.922 1.27 2.352 2.075 3.917 2.202h3.149l6.758-1.101v13.619l-7.68 1.562c-2.403 0.172-4.816 0.172-7.219 0-2.751 0.023-5.494-0.295-8.166-0.947-2.482-0.591-4.828-1.651-6.912-3.123-1.992-1.48-3.606-3.41-4.71-5.632-1.23-2.696-1.817-5.64-1.715-8.602v-59.955h-13.542v-14.080h13.67v-25.984h20.89z"></path>
<path fill="#fff" d="M447.539 652.877h18.534l1.254 8.294c2.283-3.031 5.235-5.493 8.627-7.194 3.261-1.657 6.863-2.534 10.522-2.56h4.403l5.35 1.408v16.896c-3.291-1.407-6.724-2.455-10.24-3.123-2.612-0.063-5.199 0.527-7.526 1.715-2.219 1.187-4.151 2.848-5.658 4.864-1.565 2.121-2.735 4.505-3.456 7.040-0.832 2.739-1.254 5.586-1.254 8.448v54.17h-20.48l-0.077-89.958z"></path>
<path fill="#fff" d="M541.901 715.494l21.35-62.618h21.35l-38.4 109.568c-1.14 3.281-2.725 6.391-4.71 9.242-1.664 2.325-3.676 4.379-5.965 6.093-3.833 2.924-8.517 4.515-13.338 4.531h-5.965c-2.531-0.459-5.004-1.197-7.373-2.202v-15.642l3.149 1.254 3.456 1.254 2.995 0.947h2.048c0.938-0.026 1.81-0.49 2.355-1.254 0.891-1.297 1.581-2.721 2.048-4.224 0-1.254 1.254-2.56 1.715-4.070s0.947-2.56 1.254-3.763l3.917-12.211-33.28-89.6h21.35l22.042 62.694z"></path>
<path fill="#fff" d="M629.709 698.266c-0.064-6.164 0.887-12.296 2.816-18.15 1.738-5.733 4.621-11.054 8.474-15.642 3.766-4.3 8.434-7.718 13.67-10.010 5.899-2.529 12.272-3.76 18.688-3.61 6.465-0.142 12.887 1.088 18.842 3.61 5.28 2.293 9.998 5.709 13.824 10.010 3.871 4.575 6.756 9.9 8.474 15.642 3.85 11.803 3.85 24.524 0 36.326-1.797 5.476-4.679 10.535-8.474 14.874-3.838 4.288-8.552 7.702-13.824 10.010-5.955 2.521-12.377 3.752-18.842 3.61-6.415 0.142-12.787-1.089-18.688-3.61-5.418-2.313-10.247-5.812-14.131-10.24-3.777-4.351-6.657-9.406-8.474-14.874-1.755-5.814-2.55-11.875-2.355-17.946v0zM650.189 698.266c-0.047 4.224 0.478 8.435 1.562 12.518 0.937 3.644 2.477 7.105 4.557 10.24 1.868 2.801 4.334 5.152 7.219 6.886 5.936 3.379 13.213 3.379 19.149 0 2.936-1.723 5.454-4.074 7.373-6.886 2.124-3.13 3.715-6.59 4.71-10.24 2.092-8.214 2.092-16.822 0-25.037-0.997-3.649-2.588-7.109-4.71-10.24-2.022-2.832-4.645-5.184-7.68-6.886-5.919-3.442-13.23-3.442-19.149 0-2.897 1.785-5.362 4.189-7.219 7.040-2.081 3.134-3.621 6.596-4.557 10.24-1.053 4.037-1.577 8.193-1.562 12.365h0.308z"></path>
<path fill="#fff" d="M740.941 652.877v-20.045c-0.017-2.533 0.516-5.040 1.562-7.347 1.070-2.243 2.627-4.22 4.557-5.786 2.086-1.742 4.483-3.071 7.066-3.917 3.044-0.975 6.225-1.451 9.421-1.408 2.404 0.071 4.784 0.494 7.066 1.254 2.707 0.863 5.289 2.076 7.68 3.61v13.773l-7.373-2.97-3.149-1.101c-1.539-0.051-3.045 0.448-4.25 1.408-1.315 1.361-1.945 3.242-1.715 5.12v17.536h15.693v14.566h-15.693v76.083h-20.864v-76.211h-15.616v-14.566h15.616z"></path>
<path fill="#fff" d="M848.614 679.014c-0.146 8.001 0.968 15.975 3.302 23.629 1.833 6.012 4.758 11.636 8.627 16.589 3.283 4.167 7.466 7.536 12.237 9.856 4.299 2.129 9.027 3.25 13.824 3.277 4.504 0.091 8.966-0.873 13.030-2.816 3.859-1.904 7.331-4.508 10.24-7.68 2.933-3.22 5.367-6.861 7.219-10.803 1.921-3.984 3.348-8.188 4.25-12.518h21.043c-1.252 6.582-3.415 12.958-6.426 18.944-2.876 5.846-6.758 11.141-11.469 15.642-4.578 4.323-9.893 7.791-15.693 10.24-6.76 2.597-13.956 3.875-21.197 3.763-8.339 0.158-16.622-1.384-24.346-4.531-7.101-2.987-13.436-7.537-18.534-13.312-5.359-6.265-9.367-13.568-11.776-21.453-2.857-9.275-4.23-18.943-4.070-28.646 0.013-5.26 0.588-10.504 1.715-15.642 1.083-5.398 2.801-10.648 5.12-15.642 2.274-4.717 5.12-9.137 8.474-13.158 6.814-8.203 15.87-14.243 26.061-17.382 5.596-1.727 11.423-2.59 17.28-2.56 7.188-0.11 14.346 0.944 21.197 3.123 5.681 1.956 10.988 4.865 15.693 8.602 4.619 3.667 8.554 8.122 11.622 13.158 3.14 5.181 5.568 10.76 7.219 16.589h-22.144c-2.443-7.903-7.066-14.957-13.338-20.352-6.173-4.665-13.773-7.044-21.504-6.733-5.505-0.108-10.934 1.301-15.693 4.070-4.705 2.77-8.77 6.504-11.93 10.957-3.404 4.755-5.999 10.040-7.68 15.642-1.736 6.23-2.53 12.684-2.355 19.149v0z"></path>
<path fill="#fff" d="M955.699 698.266c-0.064-6.164 0.887-12.296 2.816-18.15 1.738-5.733 4.621-11.054 8.474-15.642 3.766-4.3 8.434-7.718 13.67-10.010 5.899-2.529 12.272-3.76 18.688-3.61 6.465-0.142 12.887 1.088 18.842 3.61 5.28 2.293 9.998 5.709 13.824 10.010 3.871 4.575 6.756 9.9 8.474 15.642 3.85 11.803 3.85 24.524 0 36.326-1.797 5.476-4.679 10.535-8.474 14.874-3.838 4.288-8.552 7.702-13.824 10.010-5.955 2.521-12.377 3.752-18.842 3.61-6.415 0.142-12.787-1.089-18.688-3.61-5.254-2.367-9.922-5.863-13.67-10.24-3.777-4.351-6.657-9.406-8.474-14.874-1.908-5.789-2.859-11.85-2.816-17.946v0zM976.179 698.266c-0.047 4.224 0.479 8.435 1.562 12.518 0.937 3.644 2.477 7.105 4.557 10.24 1.868 2.801 4.334 5.152 7.219 6.886 5.936 3.379 13.213 3.379 19.149 0 2.936-1.723 5.454-4.074 7.373-6.886 2.124-3.13 3.715-6.59 4.71-10.24 2.092-8.214 2.092-16.822 0-25.037-0.997-3.649-2.588-7.109-4.71-10.24-1.934-2.799-4.449-5.148-7.373-6.886-5.919-3.442-13.23-3.442-19.149 0-2.897 1.785-5.362 4.189-7.219 7.040-2.081 3.134-3.621 6.596-4.557 10.24-1.027 4.040-1.526 8.196-1.485 12.365h-0.077z"></path>
<path fill="#fff" d="M1057.28 652.877h20.48v6.733c3.412-3.042 7.424-5.335 11.776-6.733 3.865-1.199 7.883-1.828 11.93-1.869 4.324-0.048 8.609 0.825 12.57 2.56 4.281 2.060 7.958 5.19 10.675 9.088 1.79-2.086 3.848-3.928 6.118-5.478 2.206-1.516 4.576-2.779 7.066-3.763 5.006-1.923 10.331-2.879 15.693-2.816 4.287-0.017 8.543 0.729 12.57 2.202 3.643 1.331 6.997 3.347 9.882 5.939 2.798 2.488 5.047 5.53 6.605 8.934 1.584 3.488 2.388 7.28 2.356 11.11v64.179h-21.505v-60.109c0.486-2.743 0.486-5.551 0-8.294-0.678-1.97-1.749-3.782-3.149-5.325-1.213-1.287-2.726-2.255-4.403-2.816-3.838-1.31-8.047-0.967-11.622 0.947-2.318 1.16-4.394 2.75-6.118 4.685-1.858 2.079-3.347 4.46-4.403 7.040-1.144 2.776-1.727 5.752-1.715 8.755v55.398h-21.197v-60.416c0.063-2.816-0.361-5.623-1.254-8.294-0.543-2.225-1.566-4.304-2.995-6.093-1.111-1.252-2.507-2.218-4.070-2.816-1.361-0.504-2.798-0.772-4.25-0.794-2.82-0.001-5.589 0.76-8.013 2.202-2.517 1.473-4.753 3.38-6.605 5.632-1.858 2.25-3.344 4.782-4.403 7.501-1.002 2.492-1.532 5.148-1.562 7.834v54.323h-20.48l0.026-89.446z"></path>
<path fill="#fff" d="M1200.512 652.877h20.48v6.733c3.368-3.023 7.325-5.315 11.622-6.733 3.865-1.199 7.883-1.828 11.93-1.869 4.324-0.048 8.609 0.824 12.57 2.56 4.281 2.060 7.958 5.19 10.675 9.088 1.79-2.086 3.848-3.928 6.118-5.478 2.206-1.516 4.576-2.779 7.066-3.763 5.006-1.923 10.331-2.879 15.693-2.816 4.287-0.017 8.543 0.729 12.57 2.202 3.643 1.331 6.997 3.347 9.882 5.939 2.798 2.488 5.047 5.53 6.605 8.934 1.584 3.488 2.388 7.28 2.356 11.11v64.179h-20.891v-60.109c0.079-2.817-0.345-5.626-1.254-8.294-0.678-1.97-1.749-3.782-3.149-5.325-1.213-1.287-2.726-2.255-4.403-2.816-3.838-1.31-8.047-0.967-11.622 0.947-2.318 1.16-4.394 2.75-6.118 4.685-1.857 2.079-3.346 4.46-4.403 7.040-1.144 2.776-1.727 5.752-1.715 8.755v55.398h-20.48v-60.416c0.063-2.816-0.361-5.623-1.254-8.294-0.543-2.225-1.565-4.304-2.995-6.093-1.111-1.252-2.507-2.218-4.070-2.816-1.197-0.171-2.412-0.171-3.61 0-2.82-0.001-5.589 0.76-8.013 2.202-2.517 1.473-4.753 3.38-6.605 5.632-1.858 2.25-3.344 4.782-4.403 7.501-1.003 2.491-1.532 5.148-1.562 7.834v54.323h-21.018v-90.24z"></path>
<path fill="#fff" d="M1364.429 702.029c0.203 3.689 0.945 7.329 2.202 10.803 1.136 3.312 2.777 6.43 4.864 9.242 1.914 2.582 4.314 4.764 7.066 6.426 2.608 1.554 5.591 2.368 8.627 2.355 10.5 0.025 19.595-7.278 21.837-17.536h19.302c-0.963 4.797-2.831 9.367-5.504 13.466-2.531 3.861-5.72 7.249-9.421 10.010-3.703 2.755-7.838 4.875-12.237 6.272-4.467 1.443-9.13 2.186-13.824 2.202-6.343 0.091-12.626-1.247-18.381-3.917-5.327-2.394-10.089-5.883-13.978-10.24-3.88-4.622-6.867-9.927-8.806-15.642-2.115-5.923-3.181-12.169-3.149-18.458-0.011-5.937 1.056-11.827 3.149-17.382 1.967-5.379 4.958-10.325 8.806-14.566 3.867-4.256 8.574-7.664 13.824-10.010 5.78-2.576 12.053-3.86 18.381-3.763 6.073-0.1 12.104 1.014 17.741 3.277 5.118 2.073 9.728 5.225 13.517 9.242 3.722 4.033 6.603 8.767 8.474 13.926 2.26 5.631 3.483 11.624 3.61 17.69v6.579l-66.099 0.026zM1408.563 689.229c-0.141-3.211-0.78-6.38-1.894-9.395-1.036-2.717-2.583-5.211-4.557-7.347-1.949-2.075-4.301-3.73-6.912-4.864-2.833-1.194-5.886-1.778-8.96-1.715-2.881-0.035-5.731 0.605-8.32 1.869-2.566 1.248-4.863 2.987-6.758 5.12-1.932 2.225-3.472 4.761-4.557 7.501-1.166 2.846-1.858 5.864-2.048 8.934h43.981l0.026-0.102z"></path>
<path fill="#fff" d="M1442.97 652.877h18.995v8.294c2.283-3.031 5.235-5.493 8.627-7.194 3.261-1.657 6.863-2.534 10.522-2.56h4.403l6.118 1.408v16.896c-3.291-1.407-6.724-2.455-10.24-3.123-2.612-0.063-5.199 0.527-7.526 1.715-2.219 1.187-4.151 2.848-5.658 4.864-1.565 2.121-2.735 4.505-3.456 7.040-0.832 2.739-1.254 5.586-1.254 8.448v54.17h-20.48l-0.051-89.958z"></path>
<path fill="#fff" d="M1562.163 682.778c-1.033-4.944-3.427-9.502-6.912-13.158-3.109-2.745-7.175-4.152-11.315-3.917-3.271-0.059-6.49 0.83-9.267 2.56-2.719 1.722-5.026 4.021-6.758 6.733-1.946 3.031-3.382 6.36-4.25 9.856-0.979 3.891-1.452 7.892-1.408 11.904-0.019 4.213 0.454 8.414 1.408 12.518 0.85 3.848 2.283 7.542 4.25 10.957 1.713 2.989 4.012 5.601 6.758 7.68 2.572 1.96 5.726 3.006 8.96 2.97 2.362 0.016 4.69-0.574 6.758-1.715 2.068-1.139 3.887-2.679 5.35-4.531 1.576-2.049 2.844-4.317 3.763-6.733 1.051-2.63 1.839-5.356 2.355-8.141h21.837c-0.497 5.421-1.936 10.714-4.25 15.642-2.036 4.288-4.918 8.12-8.474 11.264-3.577 3.128-7.735 5.52-12.237 7.040-5.053 1.716-10.356 2.581-15.693 2.56-6.501 0.162-12.935-1.345-18.688-4.378-5.038-2.775-9.407-6.619-12.8-11.264-3.444-4.71-5.996-10.011-7.526-15.642-1.567-5.661-2.359-11.508-2.355-17.382-0.070-6.104 0.944-12.171 2.995-17.92 1.912-5.319 4.843-10.214 8.627-14.413 3.718-4.131 8.262-7.437 13.338-9.702 5.547-2.4 11.545-3.579 17.587-3.456 5.328-0.136 10.639 0.661 15.693 2.355 4.249 1.453 8.19 3.684 11.622 6.579 3.25 2.769 5.965 6.109 8.013 9.856 2.124 3.927 3.659 8.145 4.557 12.518h-21.632l-0.307-0.64z"></path>
<path fill="#fff" d="M1618.995 702.029c0.203 3.689 0.945 7.329 2.202 10.803 1.136 3.312 2.777 6.43 4.864 9.242 1.914 2.582 4.314 4.764 7.066 6.426 2.608 1.554 5.591 2.368 8.627 2.355 10.5 0.025 19.595-7.278 21.837-17.536h18.099c-0.964 4.797-2.831 9.367-5.504 13.466-2.531 3.861-5.72 7.249-9.421 10.010-3.703 2.755-7.838 4.875-12.237 6.272-4.467 1.443-9.13 2.186-13.824 2.202-6.343 0.090-12.625-1.248-18.381-3.917-5.295-2.488-10.005-6.064-13.824-10.496-3.88-4.622-6.867-9.927-8.806-15.642-2.108-5.924-3.173-12.169-3.149-18.458-0.011-5.937 1.056-11.827 3.149-17.382 1.967-5.379 4.957-10.326 8.806-14.566 3.867-4.256 8.574-7.664 13.824-10.010 5.782-2.572 12.054-3.856 18.381-3.763 6.073-0.1 12.104 1.014 17.741 3.277 5.118 2.073 9.728 5.225 13.517 9.242 3.729 4.027 6.611 8.763 8.474 13.926 2.036 5.62 3.050 11.559 2.995 17.536v6.579h-64.538l0.102 0.435zM1663.13 689.229c-0.141-3.211-0.78-6.38-1.894-9.395-1.036-2.717-2.583-5.211-4.557-7.347-1.949-2.075-4.301-3.73-6.912-4.864-2.833-1.194-5.886-1.778-8.96-1.715-2.881-0.035-5.731 0.605-8.32 1.869-2.566 1.248-4.862 2.988-6.758 5.12-1.931 2.225-3.472 4.761-4.557 7.501-1.166 2.846-1.858 5.864-2.048 8.934h44.134l-0.128-0.102z"></path>
<path fill="#fff" d="M1736.397 679.322c0.119-4.455 1.475-8.79 3.917-12.518 2.376-3.442 5.424-6.368 8.96-8.602 3.723-2.352 7.804-4.082 12.083-5.12 4.316-1.050 8.742-1.574 13.184-1.562 4.747-0.040 9.485 0.432 14.131 1.408 4.265 0.863 8.351 2.447 12.083 4.685 3.452 2.107 6.356 5.002 8.474 8.448 2.197 3.797 3.288 8.133 3.149 12.518v46.080c-0.267 1.395-0.267 2.829 0 4.224 0.159 0.904 0.828 1.633 1.715 1.869l8.166-2.56v14.413l-7.066 1.715c-1.88 0.204-3.777 0.204-5.658 0-3.472 0.123-6.906-0.767-9.882-2.56-2.975-1.969-5.188-4.895-6.272-8.294-2.171 2.161-4.595 4.052-7.219 5.632-2.328 1.363-4.801 2.462-7.373 3.277-2.453 0.762-4.973 1.285-7.526 1.562h-7.859c-3.991 0.050-7.965-0.529-11.776-1.715-3.482-1.097-6.729-2.833-9.574-5.12-2.653-2.168-4.795-4.896-6.272-7.987-1.585-3.325-2.39-6.967-2.355-10.65-0.101-3.665 0.783-7.29 2.56-10.496 1.683-2.827 3.932-5.276 6.605-7.194 2.844-2.051 5.964-3.689 9.267-4.864 3.413-1.246 6.921-2.398 10.522-3.456l10.522-2.56c3.156-0.702 6.254-1.644 9.267-2.816 2.407-0.853 4.644-2.127 6.605-3.763 1.638-1.411 2.574-3.47 2.56-5.632 0.253-3.608-1.265-7.113-4.070-9.395-5.784-3.053-12.484-3.891-18.842-2.355-1.843 0.446-3.582 1.245-5.12 2.355-1.474 1.152-2.702 2.588-3.61 4.224-1.086 1.937-1.782 4.068-2.048 6.272h-21.35l0.102 0.538zM1791.821 697.779c-1.92 1.115-3.977 1.976-6.118 2.56l-7.68 2.355-8.166 2.56c-2.566 0.83-5.037 1.929-7.373 3.277-2.061 1.148-3.879 2.687-5.35 4.531-1.4 1.784-2.126 4.005-2.048 6.272-0.065 1.872 0.257 3.737 0.947 5.478 0.566 1.383 1.442 2.618 2.56 3.61 1.056 0.873 2.287 1.511 3.61 1.869 1.301 0.156 2.616 0.156 3.917 0 4.912-0.081 9.682-1.662 13.67-4.531 4.989-3.649 9.114-8.351 12.083-13.773v-14.234l-0.051 0.026z"></path>
<path fill="#fff" d="M1836.16 652.851h20.89v7.347c3.927-3.207 8.391-5.694 13.184-7.347 4.573-1.441 9.337-2.184 14.131-2.202 4.34-0.087 8.665 0.545 12.8 1.869 3.538 1.14 6.799 3.006 9.574 5.478 2.61 2.382 4.648 5.322 5.965 8.602 1.39 3.645 2.084 7.517 2.048 11.418v64.333h-20.89v-62.669c0.404-4.136-0.776-8.271-3.302-11.571-2.36-2.373-5.618-3.629-8.96-3.456-3.299-0.013-6.563 0.677-9.574 2.022-2.921 1.283-5.585 3.087-7.859 5.325-2.175 2.147-3.913 4.694-5.12 7.501-1.243 2.752-1.889 5.736-1.894 8.755v53.99h-20.89l-0.102-89.395z"></path>
<path fill="#fff" d="M2009.37 743.347h-20.736v-5.478c-2.906 2.368-6.196 4.221-9.728 5.478-3.473 1.251-7.138 1.884-10.829 1.869-6.061 0.151-12.076-1.084-17.587-3.61-4.961-2.339-9.335-5.759-12.8-10.010-3.588-4.643-6.201-9.963-7.68-15.642-1.758-5.94-2.621-12.109-2.56-18.304-0.030-6.193 0.832-12.357 2.56-18.304 1.442-5.663 4-10.981 7.526-15.642 3.378-4.245 7.676-7.667 12.57-10.010 5.457-2.527 11.422-3.762 17.434-3.61 3.664 0.063 7.285 0.81 10.675 2.202 3.646 1.418 7.089 3.312 10.24 5.632v-39.757h20.736v125.21l0.179-0.026zM1988.634 696.397c-0.095-4.114-0.618-8.206-1.562-12.211-0.804-3.463-2.125-6.785-3.917-9.856-1.57-2.678-3.712-4.977-6.272-6.733-2.448-1.681-5.351-2.575-8.32-2.56-3.019-0.030-5.976 0.864-8.474 2.56-2.594 1.845-4.738 4.251-6.272 7.040-1.807 3.2-3.127 6.651-3.917 10.24-1.792 8.362-1.792 17.008 0 25.37 0.766 3.596 2.087 7.051 3.917 10.24 1.544 2.74 3.688 5.094 6.272 6.886 5.211 3.37 11.915 3.37 17.126 0 2.588-1.788 4.733-4.143 6.272-6.886 1.814-3.196 3.135-6.649 3.917-10.24 0.889-4.207 1.31-8.5 1.254-12.8v-1.254l-0.026 0.205z"></path>
<path fill="#fff" d="M2086.63 618.138v125.21h-20.89v-125.21z"></path>
<path fill="#fff" d="M2105.779 652.877h20.89v7.347c3.87-2.891 8.197-5.114 12.8-6.579 4.573-1.442 9.337-2.184 14.131-2.202 4.34-0.087 8.665 0.545 12.8 1.869 3.538 1.14 6.799 3.006 9.574 5.478 2.61 2.382 4.648 5.322 5.965 8.602 1.39 3.645 2.084 7.517 2.048 11.418v64.384h-20.48v-62.618c0.404-4.136-0.776-8.271-3.302-11.571-2.36-2.373-5.618-3.629-8.96-3.456-3.299-0.013-6.563 0.677-9.574 2.022-2.921 1.283-5.585 3.087-7.859 5.325-2.175 2.147-3.913 4.694-5.12 7.501-1.243 2.752-1.889 5.736-1.894 8.755v54.042h-21.018v-90.317z"></path>
<path fill="#fff" d="M2232.653 715.494l22.758-62.618h21.35l-33.28 90.47h-20.736l-33.613-90.47h21.658z"></path>
<path fill="#fff" d="M2304.307 702.029c0.204 3.689 0.946 7.329 2.202 10.803 1.136 3.312 2.777 6.43 4.864 9.242 1.914 2.582 4.314 4.765 7.066 6.426 2.608 1.554 5.591 2.368 8.627 2.355 10.5 0.025 19.595-7.278 21.837-17.536h19.302c-0.964 4.797-2.831 9.367-5.504 13.466-2.531 3.861-5.72 7.249-9.421 10.010-3.703 2.755-7.838 4.875-12.237 6.272-4.467 1.443-9.13 2.186-13.824 2.202-6.343 0.090-12.625-1.248-18.381-3.917-5.546-2.32-10.524-5.814-14.592-10.24-3.871-4.624-6.849-9.928-8.781-15.642-2.115-5.923-3.181-12.169-3.149-18.458-0.011-5.937 1.056-11.827 3.149-17.382 1.96-5.377 4.941-10.323 8.781-14.566 3.867-4.256 8.574-7.664 13.824-10.010 5.782-2.572 12.054-3.856 18.381-3.763 6.073-0.1 12.104 1.014 17.741 3.277 5.118 2.073 9.728 5.225 13.517 9.242 3.729 4.027 6.611 8.763 8.474 13.926 2.035 5.62 3.050 11.559 2.995 17.536v6.579h-65.382l0.512 0.179zM2348.442 689.229c-0.141-3.211-0.78-6.38-1.894-9.395-1.036-2.718-2.582-5.212-4.557-7.347-1.949-2.075-4.301-3.731-6.912-4.864-2.833-1.194-5.886-1.778-8.96-1.715-2.881-0.035-5.731 0.605-8.32 1.869-2.566 1.248-4.863 2.987-6.758 5.12-1.932 2.225-3.472 4.761-4.557 7.501-1.166 2.846-1.858 5.864-2.048 8.934h44.134l-0.128-0.102z"></path>
<path fill="#fff" d="M2404.122 713.472c-0.037 2.777 0.441 5.537 1.408 8.141 0.755 2.048 1.933 3.915 3.456 5.478 1.443 1.387 3.199 2.406 5.12 2.97 1.875 0.64 3.832 1.010 5.811 1.101 2.036 0.172 4.083 0.172 6.118 0 2.023-0.313 3.985-0.944 5.811-1.869 1.744-0.89 3.253-2.179 4.403-3.763 1.219-1.79 1.821-3.929 1.715-6.093 0.081-1.994-0.465-3.964-1.562-5.632-1.178-1.64-2.676-3.025-4.403-4.070-1.99-1.19-4.091-2.184-6.272-2.97l-7.526-2.56-11.622-4.224c-3.701-1.363-7.232-3.149-10.522-5.325-2.976-1.983-5.533-4.532-7.526-7.501-2.061-3.162-3.106-6.877-2.995-10.65-0.094-3.746 0.883-7.44 2.816-10.65 1.898-3.046 4.474-5.613 7.526-7.501 3.392-2.093 7.101-3.624 10.982-4.531 4.272-0.984 8.646-1.457 13.030-1.408 4.756-0.045 9.5 0.48 14.131 1.562 4.082 0.926 7.966 2.573 11.469 4.864 3.178 2.12 5.81 4.962 7.68 8.294 1.994 3.711 3.074 7.845 3.149 12.058h-20.736c-0.227-2.087-0.871-4.107-1.894-5.939-0.864-1.491-2.044-2.776-3.456-3.763-1.429-0.964-3.027-1.65-4.71-2.022-1.829-0.204-3.675-0.204-5.504 0-3.576-0.234-7.125 0.76-10.061 2.816-2.245 1.7-3.532 4.379-3.456 7.194-0.056 1.832 0.493 3.631 1.562 5.12 1.211 1.569 2.704 2.897 4.403 3.917 2.043 1.25 4.204 2.296 6.451 3.123l7.526 2.816 11.622 4.378c3.681 1.408 7.207 3.192 10.522 5.325 2.919 1.866 5.47 4.252 7.526 7.040 1.959 2.789 2.948 6.143 2.816 9.549 0.133 4.474-0.956 8.899-3.149 12.8-2.107 3.495-5.010 6.443-8.474 8.602-3.812 2.411-8.013 4.143-12.416 5.12-4.85 1.067-9.805 1.591-14.771 1.562-4.834 0.018-9.646-0.663-14.285-2.022-4.265-1.218-8.261-3.234-11.776-5.939-3.413-2.645-6.201-6.011-8.166-9.856-2.179-4.325-3.36-9.084-3.456-13.926h21.658l0.026-1.613z"></path>
<path fill="#fff" d="M2500.736 626.893v25.984h13.338v14.080h-13.517v55.245c-0.254 2.356 0.296 4.729 1.562 6.733 1.058 1.237 2.623 1.925 4.25 1.869h3.149l6.758-1.101v13.619l-7.68 1.562c-2.403 0.172-4.816 0.172-7.219 0-2.751 0.023-5.494-0.295-8.166-0.947-2.482-0.591-4.828-1.651-6.912-3.123-1.991-1.481-3.605-3.41-4.71-5.632-1.23-2.696-1.817-5.64-1.715-8.602v-59.648h-12.8v-14.080h13.67v-25.984h20.096l-0.102 0.026z"></path>
<path fill="#fff" d="M2529.766 652.877h20.48v6.733c3.137-2.927 6.816-5.215 10.829-6.733 3.865-1.199 7.883-1.828 11.93-1.869 4.324-0.048 8.609 0.825 12.57 2.56 4.281 2.060 7.958 5.19 10.675 9.088 1.79-2.086 3.848-3.928 6.118-5.478 2.204-1.52 4.575-2.782 7.066-3.763 5.006-1.923 10.331-2.879 15.693-2.816 4.287-0.017 8.543 0.729 12.57 2.202 3.643 1.331 6.997 3.347 9.882 5.939 2.798 2.488 5.047 5.53 6.605 8.934 1.584 3.488 2.388 7.28 2.356 11.11v64.179h-20.481v-60.109c0.055-2.822-0.396-5.631-1.331-8.294-0.678-1.97-1.749-3.782-3.149-5.325-1.213-1.287-2.726-2.255-4.403-2.816-3.838-1.31-8.047-0.967-11.622 0.947-2.318 1.16-4.394 2.75-6.118 4.685-1.858 2.079-3.347 4.46-4.403 7.040-1.154 2.774-1.746 5.75-1.741 8.755v55.398h-20.736v-60.416c0.063-2.816-0.361-5.623-1.254-8.294-0.636-1.956-1.654-3.766-2.995-5.325-1.111-1.252-2.507-2.218-4.070-2.816-1.361-0.504-2.798-0.772-4.25-0.794-2.82-0.001-5.589 0.76-8.013 2.202-2.517 1.473-4.753 3.38-6.605 5.632-1.858 2.25-3.345 4.782-4.403 7.501-1.003 2.491-1.532 5.148-1.562 7.834v54.323h-19.635v-90.214z"></path>
<path fill="#fff" d="M2693.069 702.029c0.203 3.689 0.945 7.329 2.202 10.803 1.136 3.312 2.777 6.43 4.864 9.242 1.914 2.582 4.314 4.764 7.066 6.426 2.608 1.554 5.591 2.368 8.627 2.355 10.5 0.025 19.595-7.278 21.837-17.536h19.302c-0.96 4.798-2.828 9.369-5.504 13.466-2.531 3.862-5.719 7.25-9.421 10.010-3.703 2.755-7.838 4.875-12.237 6.272-4.467 1.443-9.13 2.186-13.824 2.202-6.343 0.090-12.625-1.248-18.381-3.917-5.295-2.488-10.005-6.064-13.824-10.496-3.88-4.622-6.867-9.927-8.806-15.642-2.116-5.922-3.181-12.169-3.15-18.458-0.011-5.937 1.055-11.827 3.15-17.382 1.967-5.379 4.957-10.326 8.806-14.566 3.868-4.255 8.574-7.663 13.824-10.010 5.782-2.572 12.054-3.856 18.381-3.763 6.073-0.1 12.104 1.014 17.741 3.277 5.116 2.076 9.725 5.228 13.517 9.242 3.722 4.033 6.603 8.767 8.474 13.926 2.035 5.62 3.050 11.559 2.995 17.536v6.579h-65.638v0.435zM2737.203 689.229c-0.141-3.211-0.78-6.38-1.894-9.395-1.036-2.717-2.583-5.211-4.557-7.347-1.949-2.075-4.301-3.73-6.912-4.864-2.833-1.194-5.886-1.778-8.96-1.715-2.881-0.035-5.731 0.605-8.32 1.869-2.566 1.248-4.862 2.988-6.758 5.12-1.931 2.225-3.472 4.761-4.557 7.501-1.166 2.846-1.858 5.864-2.048 8.934h44.134l-0.128-0.102z"></path>
<path fill="#fff" d="M2771.763 652.877h20.89v7.347c3.872-2.888 8.198-5.112 12.8-6.579 4.573-1.442 9.337-2.184 14.131-2.202 4.34-0.087 8.665 0.545 12.8 1.869 3.538 1.14 6.799 3.006 9.574 5.478 2.61 2.382 4.648 5.322 5.965 8.602 1.39 3.645 2.084 7.517 2.048 11.418v64.384h-20.48v-62.618c0.404-4.136-0.776-8.271-3.302-11.571-2.36-2.373-5.618-3.629-8.96-3.456-3.299-0.013-6.563 0.677-9.574 2.022-2.921 1.283-5.585 3.087-7.859 5.325-2.175 2.147-3.913 4.694-5.12 7.501-1.244 2.751-1.89 5.736-1.894 8.755v54.042h-20.89l-0.128-90.317z"></path>
<path fill="#fff" d="M2890.931 626.893v25.984h13.517v14.080h-13.517v55.245c-0.254 2.356 0.296 4.729 1.562 6.733 1.058 1.237 2.623 1.925 4.25 1.869h3.149l6.758-1.101v13.619l-7.68 1.562c-2.403 0.172-4.816 0.172-7.219 0-2.751 0.023-5.494-0.295-8.166-0.947-2.482-0.591-4.828-1.651-6.912-3.123-1.992-1.48-3.606-3.41-4.71-5.632-1.23-2.696-1.817-5.64-1.715-8.602v-59.648h-13.67v-14.080h13.67v-25.984l20.685 0.026z"></path>
</svg>
